<?xml version="1.0" encoding="UTF-8" standalone="no"?>
<!DOCTYPE svg PUBLIC "-//W3C//DTD SVG 1.1//EN" "http://www.w3.org/Graphics/SVG/1.1/DTD/svg11.dtd">
<svg width="100%" height="100%" viewBox="0 0 324 445" version="1.1" xmlns="http://www.w3.org/2000/svg" xmlns:xlink="http://www.w3.org/1999/xlink" xml:space="preserve" xmlns:serif="http://www.serif.com/" style="fill-rule:evenodd;clip-rule:evenodd;stroke-linejoin:round;stroke-miterlimit:2;">
    <g transform="matrix(4.16667,0,0,4.16667,-896.776,-1962.12)">
        <path d="M259.338,555.715C259.976,555.138 260.633,554.531 261.457,554.285C263.37,553.712 265.61,554.213 267.603,553.796C269.535,553.391 271.433,553.185 273.399,552.905C277.851,552.273 282.29,550.883 285.822,548.007C289.321,545.156 291.546,540.471 291.312,535.937C291.082,531.472 286.669,527.003 282.154,527.958C278.568,528.716 272.718,531.491 269.588,528.359C266.948,525.719 276.523,521.061 278.223,519.749C279.14,519.042 280.196,518.103 281.182,517.018C283.394,514.585 285.253,511.427 284.382,508.548C283.568,505.857 280.813,504.486 278.138,504.577C275.556,504.664 273.093,505.752 270.957,507.206C269.208,508.397 267.63,509.842 265.783,510.873C264.752,511.447 263.202,511.972 262.023,511.969C261.249,511.966 260.432,511.663 260.01,511.013C258.394,508.521 264.844,504.089 266.176,502.534C269.408,498.764 273.3,492.792 268.819,488.419C267.363,486.998 265.132,486.426 263.172,486.971C260.579,487.692 258.108,490.479 256.346,492.409C256.095,492.686 255.316,494.053 255.018,494.149C252.757,494.882 252.308,489.496 252.028,488.104C251.481,485.394 250.824,482.682 249.829,480.097C248.212,475.896 245.03,470.848 239.826,473.073C235.713,474.831 233.493,480.645 232.844,484.695C232.337,487.854 232.408,490.248 232.89,492.87C233.081,493.907 233.335,494.979 233.645,496.15C234.245,498.424 234.819,502.09 231.264,500.417C226.894,498.36 219.625,496.092 217.409,502.105C214.988,508.674 220.373,513.429 226.035,515.066C227.701,515.549 231.668,516.635 232.437,518.312C234.269,522.312 226,525.355 223.587,526.514C220.592,527.951 216.976,531.212 217.308,534.965C217.699,539.366 221.716,541.19 225.616,541.73C230.344,542.385 235.009,540.493 239.36,539.132C239.956,538.945 240.694,538.818 241.126,539.268C241.704,539.867 241.199,540.854 240.645,541.475C236.355,546.272 228.51,549.778 228.13,556.923C227.723,564.567 236.058,568.477 242.6,566.853C249.158,565.224 254.476,560.118 259.338,555.715Z" style="fill:rgb(5,150,105);fill-rule:nonzero;"/>
        <path d="M260.48,556.857C262.905,554.803 270.577,554.983 273.829,554.464C278.394,553.734 282.992,552.366 286.638,549.402C291.307,545.606 294.662,538.393 292.1,532.484C291.033,530.022 289.009,527.881 286.509,526.857C283.097,525.461 280.002,527.022 276.653,527.771C274.611,528.227 270.538,528.757 271.855,525.963C272.392,524.824 274.702,523.849 275.751,523.191C278.169,521.676 280.371,520.306 282.325,518.16C286.244,513.857 288.482,506.327 281.581,503.572C278.87,502.491 275.849,503.019 273.234,504.119C271.629,504.796 270.263,505.735 268.855,506.741C267.943,507.394 262.147,511.939 262.755,507.972C262.973,506.554 267.326,503.704 268.388,502.363C270.325,499.919 272.156,497.004 272.394,493.813C272.843,487.814 266.802,483.388 261.265,486.014C259.946,486.639 258.801,487.644 257.743,488.627C257.044,489.275 255.662,491.53 254.756,491.87C253.984,492.16 255.619,493.091 254.45,491.705C254.02,491.195 254.039,490.182 253.9,489.553C253.463,487.575 253.178,485.591 252.648,483.625C251.315,478.678 248.667,471.163 242.467,470.915C236.141,470.663 232.64,477.953 231.501,483.122C230.764,486.474 230.716,489.929 231.332,493.3C231.611,494.833 233.082,498.489 231.823,498.775C230.829,499.002 228.686,497.603 227.73,497.329C223.025,495.982 217.749,496.506 215.851,501.676C213.662,507.635 217.521,513.072 222.832,515.573C225.055,516.62 232.239,517.423 230.119,521.046C228.703,523.466 223.93,524.327 221.628,525.74C216.885,528.651 213.371,534.759 217.626,539.698C219.579,541.965 222.736,543.008 225.616,543.347C228.129,543.642 230.607,543.31 233.059,542.746C234.208,542.481 235.347,542.108 236.472,541.763C237.029,541.582 237.586,541.4 238.144,541.22C240.16,540.496 240.331,540.495 238.659,541.218C233.999,546.355 226.441,549.573 226.522,557.578C226.587,564.03 232.363,568.341 238.424,568.771C247.239,569.395 254.458,562.326 260.48,556.857C262.025,555.456 259.734,553.176 258.196,554.571C253.87,558.5 249.35,563.011 243.662,564.858C238.583,566.508 231.269,565.05 229.891,559.033C228.618,553.479 233.878,549.574 237.568,546.469C240.089,544.348 243.287,542.436 242.685,538.838C242.589,538.265 242.054,537.895 241.556,537.709C239.495,536.941 237.631,538.029 235.612,538.646C231.868,539.791 228.023,540.857 224.108,539.775C217.579,537.97 218.15,531.717 223.259,528.531C225.063,527.406 227.139,526.768 228.989,525.722C231.364,524.378 234.536,522.308 234.296,519.154C234.048,515.881 230.411,514.794 227.815,513.91C225.199,513.02 222.642,512.26 220.644,510.203C217.431,506.896 217.573,500.493 223.004,499.851C226.47,499.439 230.933,503.742 234.036,502.172C236.428,500.961 235.642,497.781 235.203,495.721C233.876,489.488 232.984,479.06 239.566,475.044C246.964,470.53 249.729,484.711 250.571,489.132C250.997,491.366 251.347,495.521 254.33,495.797C258.156,496.15 259.622,489.228 263.602,488.529C271.014,487.229 269.463,493.684 268.365,496.313C267.859,497.524 267.18,498.607 266.41,499.667C264.813,501.863 262.691,503.33 260.845,505.279C259.281,506.931 257.187,509.449 258.614,511.828C260.647,515.216 265.558,512.948 267.94,511.428C270.499,509.796 272.559,507.61 275.54,506.68C279.679,505.388 284.907,506.763 281.793,513.564C281.119,515.036 279.333,516.756 278.036,517.825C275.187,520.172 271.369,521.446 268.936,524.313C267.072,526.51 267.095,528.979 269.788,530.525C275.434,533.769 282.127,526.691 287.197,531.058C290.985,534.319 289.924,540.089 287.457,543.803C284.577,548.14 279.544,550.117 274.636,551.073C269.351,552.103 262.457,550.959 258.196,554.571C256.607,555.919 258.903,558.195 260.48,556.857Z" style="fill:rgb(5,150,105);fill-rule:nonzero;"/>
        <path d="M240.845,487.715C242.495,519.421 252.775,550.011 269.749,576.776C270.86,578.528 273.658,576.909 272.54,575.146C255.87,548.859 245.698,518.862 244.078,487.715C243.97,485.646 240.737,485.633 240.845,487.715Z" style="fill:rgb(4,120,87);fill-rule:nonzero;"/>
        <path d="M232.136,510.469C236.798,511.997 241.057,514.166 245.142,516.87C246.881,518.021 248.501,515.223 246.773,514.079C242.464,511.228 237.907,508.962 232.996,507.353C231.014,506.703 230.165,509.823 232.136,510.469Z" style="fill:rgb(4,120,87);fill-rule:nonzero;"/>
        <path d="M258.605,519.714C255.124,525.982 252.792,532.646 251.663,539.73C251.339,541.766 254.453,542.642 254.78,540.59C255.866,533.77 258.039,527.39 261.397,521.345C262.408,519.525 259.617,517.894 258.605,519.714Z" style="fill:rgb(4,120,87);fill-rule:nonzero;"/>
    </g>
</svg>
