<svg viewBox="0 0 2500 2500" xmlns="http://www.w3.org/2000/svg" xml:space="preserve" style="fill-rule:evenodd;clip-rule:evenodd;stroke-linejoin:round;stroke-miterlimit:2"><path d="M1056.06 446.07c32.75-9.257 66.8 9.784 76.05 42.53 9.26 32.746-9.78 66.797-42.53 76.055-32.74 9.257-66.79-9.784-76.05-42.53-9.26-32.747 9.78-66.797 42.53-76.055Zm-105.646 81.461 6.512 23.032 26.105-1.402a99.16 99.16 0 0 0 8.511 14.341l-13.644 22.263 17.156 16.691 21.916-14.27c4.61 3.107 9.47 5.825 14.53 8.128l-.68 26.14 23.2 5.878 11.82-23.281c5.5.385 11.07.296 16.68-.257l12.47 22.975 23.03-6.512-1.4-26.104a99.402 99.402 0 0 0 14.34-8.511l22.26 13.643 16.69-17.155-14.27-21.912c3.11-4.613 5.83-9.474 8.13-14.536l26.14.685 5.88-23.203-23.28-11.823c.39-5.497.3-11.071-.26-16.674l22.98-12.474-6.51-23.032-26.11 1.402a98.566 98.566 0 0 0-8.51-14.34l13.64-22.263-17.15-16.691-21.91 14.27a100.47 100.47 0 0 0-14.54-8.129l.69-26.139-23.21-5.878-11.82 23.28a99.123 99.123 0 0 0-16.67.257l-12.48-22.974-23.03 6.511 1.4 26.105a99.13 99.13 0 0 0-14.34 8.511l-22.261-13.644-16.691 17.156 14.27 21.911a100.38 100.38 0 0 0-8.128 14.537l-26.141-.686-5.877 23.203 23.28 11.824a99.196 99.196 0 0 0 .258 16.675l-22.976 12.472Z" style="fill:#fff;fill-rule:nonzero"/><path d="M1056.06 446.07h.02-.02Zm.6 2.143c-15.26 4.316-27.93 14.317-35.67 28.163-7.75 13.846-9.63 29.878-5.32 45.143 4.32 15.265 14.32 27.936 28.17 35.678 13.84 7.743 29.87 9.63 45.14 5.315 15.26-4.316 27.93-14.318 35.68-28.163 7.74-13.846 9.63-29.878 5.31-45.143-4.31-15.265-14.32-27.936-28.16-35.679-13.85-7.742-29.88-9.63-45.15-5.314Zm16.07 121.021c-10.77.001-21.41-2.75-31.07-8.149-14.88-8.323-25.63-21.944-30.27-38.354-4.64-16.41-2.61-33.645 5.71-48.529s21.94-25.636 38.35-30.275c16.41-4.639 33.65-2.61 48.53 5.713 14.89 8.323 25.64 21.944 30.28 38.354 4.64 16.41 2.61 33.645-5.72 48.528-8.32 14.885-21.94 25.636-38.35 30.276a64.144 64.144 0 0 1-17.46 2.436Zm-39.64 51.498 19.75 5.003 11.02-21.692a2.23 2.23 0 0 1 2.14-1.213c5.34.374 10.82.289 16.3-.252.88-.09 1.75.366 2.17 1.153l11.63 21.411 19.6-5.543-1.3-24.327c-.05-.894.44-1.73 1.25-2.122a98.07 98.07 0 0 0 14.02-8.319 2.228 2.228 0 0 1 2.46-.088l20.74 12.713 14.21-14.602-13.3-20.421a2.222 2.222 0 0 1 .02-2.459 99.228 99.228 0 0 0 7.95-14.215 2.239 2.239 0 0 1 2.08-1.304l24.36.639 5.01-19.75-21.7-11.018a2.224 2.224 0 0 1-1.21-2.141c.37-5.331.29-10.814-.25-16.3a2.217 2.217 0 0 1 1.15-2.176l21.41-11.623-5.54-19.606-24.33 1.307c-.9.044-1.73-.444-2.12-1.25a97.541 97.541 0 0 0-8.32-14.019 2.242 2.242 0 0 1-.09-2.459l12.71-20.745-14.6-14.207-20.42 13.298c-.75.488-1.72.481-2.46-.019a98.179 98.179 0 0 0-14.21-7.949 2.23 2.23 0 0 1-1.31-2.086l.64-24.359-19.75-5.002-11.01 21.692a2.24 2.24 0 0 1-2.15 1.213 97.251 97.251 0 0 0-16.3.251c-.88.09-1.74-.366-2.17-1.153l-11.63-21.41-19.6 5.543 1.31 24.326a2.25 2.25 0 0 1-1.25 2.123 96.628 96.628 0 0 0-14.02 8.319c-.73.521-1.7.556-2.46.088l-20.746-12.714-14.208 14.604 13.299 20.419c.488.749.48 1.717-.02 2.459a98.553 98.553 0 0 0-7.948 14.215 2.227 2.227 0 0 1-2.086 1.304l-24.36-.638-5.003 19.75 21.692 11.017a2.23 2.23 0 0 1 1.214 2.142 97.121 97.121 0 0 0 .252 16.3 2.228 2.228 0 0 1-1.153 2.176l-21.412 11.622 5.543 19.606 24.328-1.306c.9-.049 1.731.444 2.122 1.25a97.387 97.387 0 0 0 8.319 14.019c.52.727.555 1.696.087 2.459l-12.712 20.744 14.603 14.208 20.419-13.299a2.23 2.23 0 0 1 2.46.019 98.133 98.133 0 0 0 14.22 7.949 2.237 2.237 0 0 1 1.3 2.086l-.64 24.359Zm20.93 9.827c-.18 0-.36-.022-.55-.069l-23.2-5.877a2.225 2.225 0 0 1-1.68-2.217l.65-24.677a102.715 102.715 0 0 1-12.28-6.868l-20.69 13.471a2.229 2.229 0 0 1-2.769-.27l-17.155-16.691a2.228 2.228 0 0 1-.346-2.76l12.877-21.014a102.038 102.038 0 0 1-7.191-12.123l-24.64 1.324a2.243 2.243 0 0 1-2.263-1.618l-6.512-23.033a2.226 2.226 0 0 1 1.081-2.563l21.687-11.773a101.79 101.79 0 0 1-.221-14.094l-21.974-11.161a2.228 2.228 0 0 1-1.151-2.533l5.878-23.202c.256-1.011 1.249-1.704 2.218-1.68l24.676.647a103.065 103.065 0 0 1 6.868-12.283l-13.471-20.685a2.224 2.224 0 0 1 .27-2.768l16.691-17.156a2.227 2.227 0 0 1 2.76-.346l21.017 12.878c3.81-2.64 7.88-5.052 12.12-7.191l-1.32-24.64c-.06-1.04.61-1.98 1.61-2.263l23.04-6.511c1-.284 2.06.165 2.56 1.08l11.77 21.686c4.74-.399 9.47-.474 14.1-.22l11.16-21.974a2.224 2.224 0 0 1 2.53-1.151l23.2 5.878a2.223 2.223 0 0 1 1.68 2.217l-.64 24.676c4.23 2.002 8.35 4.306 12.28 6.869l20.68-13.471a2.227 2.227 0 0 1 2.77.27l17.16 16.691c.74.726.89 1.872.34 2.76l-12.87 21.014c2.64 3.815 5.05 7.882 7.19 12.123l24.64-1.324a2.238 2.238 0 0 1 2.26 1.618l6.51 23.032a2.224 2.224 0 0 1-1.08 2.563l-21.69 11.774c.4 4.735.48 9.463.23 14.094l21.97 11.161a2.23 2.23 0 0 1 1.15 2.532l-5.88 23.203c-.25 1.01-1.24 1.704-2.22 1.679l-24.67-.647c-2 4.236-4.31 8.356-6.87 12.283l13.47 20.686c.57.872.46 2.022-.27 2.768l-16.69 17.155c-.73.746-1.87.891-2.76.346l-21.01-12.878a101.916 101.916 0 0 1-12.13 7.192l1.33 24.64a2.236 2.236 0 0 1-1.62 2.262l-23.03 6.512a2.234 2.234 0 0 1-2.57-1.08l-11.77-21.686c-4.73.399-9.46.473-14.09.219l-11.16 21.975a2.242 2.242 0 0 1-1.99 1.219Z" style="fill-rule:nonzero"/><path d="M750.432 630.416c56.035-15.841 114.302 16.742 130.144 72.776 15.841 56.036-16.742 114.303-72.777 130.145-56.034 15.841-114.302-16.742-130.144-72.777-15.841-56.035 16.742-114.302 72.777-130.144ZM569.655 769.812l11.142 39.413 44.67-2.4c4.214 8.664 9.077 16.871 14.564 24.54l-23.347 38.094 29.357 28.562 37.495-24.417a172 172 0 0 0 24.876 13.909l-1.174 44.73 39.703 10.057 20.233-39.836c9.406.658 18.945.506 28.534-.441l21.342 39.314 39.413-11.142-2.398-44.67c8.663-4.213 16.87-9.079 24.539-14.564l38.095 23.347 28.561-29.356-24.418-37.495a172.118 172.118 0 0 0 13.911-24.875l44.729 1.172 10.057-39.704-39.836-20.232c.659-9.406.505-18.945-.441-28.533l39.315-21.343-11.143-39.414-44.67 2.4c-4.213-8.664-9.077-16.871-14.563-24.54l23.346-38.095-29.356-28.561-37.495 24.418a171.917 171.917 0 0 0-24.875-13.911l1.172-44.729-39.703-10.056-20.233 39.835c-9.406-.659-18.945-.506-28.532.44l-21.344-39.313-39.414 11.142 2.4 44.67c-8.664 4.213-16.872 9.077-24.54 14.564l-38.095-23.347-28.561 29.356 24.419 37.494a171.98 171.98 0 0 0-13.911 24.876l-44.73-1.172-10.057 39.704 39.836 20.233c-.659 9.405-.506 18.944.441 28.532l-39.314 21.344Z" style="fill:#fff;fill-rule:nonzero"/><path d="M779.27 628.62c-9.428 0-18.911 1.304-28.232 3.939-54.764 15.483-86.722 72.631-71.24 127.396 15.483 54.762 72.631 86.722 127.395 71.238 26.529-7.5 48.55-24.881 62.004-48.943 13.455-24.062 16.735-51.923 9.235-78.452-7.499-26.528-24.881-48.548-48.943-62.003-15.607-8.728-32.815-13.175-50.219-13.175Zm-.116 210.932c-46.969.002-90.249-31.011-103.642-78.386-16.15-57.127 17.188-116.743 74.314-132.893l.606 2.144-.606-2.144c27.674-7.822 56.739-4.402 81.837 9.634 25.101 14.036 43.232 37.007 51.056 64.68 7.823 27.673 4.402 56.737-9.634 81.837-14.036 25.1-37.007 43.232-64.68 51.056a107.457 107.457 0 0 1-29.251 4.072Zm-69.643 90.969 36.252 9.183 19.426-38.249a2.236 2.236 0 0 1 2.141-1.213c9.223.646 18.695.498 28.158-.435a2.228 2.228 0 0 1 2.176 1.153l20.494 37.75 35.986-10.174-2.303-42.891a2.232 2.232 0 0 1 1.249-2.124c8.549-4.156 16.697-8.991 24.219-14.371a2.225 2.225 0 0 1 2.459-.087l36.577 22.416 26.077-26.804-23.445-36.004a2.225 2.225 0 0 1 .018-2.459 170.18 170.18 0 0 0 13.731-24.553 2.235 2.235 0 0 1 2.086-1.304l42.948 1.126 9.183-36.251-38.248-19.426a2.227 2.227 0 0 1-1.214-2.141c.646-9.216.499-18.69-.435-28.16a2.228 2.228 0 0 1 1.154-2.176l37.75-20.493-10.174-35.986-42.892 2.304a2.228 2.228 0 0 1-2.123-1.25c-4.163-8.56-8.997-16.708-14.372-24.218a2.23 2.23 0 0 1-.087-2.459l22.416-36.578-26.804-26.077-36.002 23.446a2.227 2.227 0 0 1-2.46-.019 170.239 170.239 0 0 0-24.553-13.731 2.225 2.225 0 0 1-1.304-2.086l1.126-42.948-36.252-9.183-19.427 38.249a2.22 2.22 0 0 1-2.141 1.213c-9.214-.646-18.689-.5-28.157.434a2.24 2.24 0 0 1-2.176-1.153l-20.496-37.749-35.986 10.173 2.305 42.892a2.23 2.23 0 0 1-1.25 2.122c-8.557 4.162-16.705 8.998-24.217 14.373a2.226 2.226 0 0 1-2.46.088l-36.577-22.417-26.077 26.804 23.446 36.002a2.223 2.223 0 0 1-.02 2.459 170.485 170.485 0 0 0-13.73 24.554 2.2 2.2 0 0 1-2.085 1.304l-42.95-1.126-9.183 36.252 38.248 19.427a2.227 2.227 0 0 1 1.214 2.141c-.646 9.215-.5 18.689.435 28.159a2.226 2.226 0 0 1-1.154 2.175l-37.748 20.494 10.173 35.986 42.892-2.304a2.201 2.201 0 0 1 2.122 1.25c4.159 8.553 8.993 16.701 14.372 24.218a2.23 2.23 0 0 1 .087 2.46l-22.415 36.576 26.803 26.078 36.003-23.446a2.229 2.229 0 0 1 2.46.019 170.351 170.351 0 0 0 24.553 13.73 2.225 2.225 0 0 1 1.304 2.085l-1.126 42.95Zm37.43 14.006c-.18 0-.364-.022-.546-.068l-39.704-10.057a2.226 2.226 0 0 1-1.679-2.217l1.134-43.263a174.886 174.886 0 0 1-22.625-12.651l-36.265 23.616a2.225 2.225 0 0 1-2.768-.269l-29.357-28.562a2.229 2.229 0 0 1-.346-2.76l22.579-36.842c-4.905-6.989-9.353-14.487-13.246-22.327l-43.201 2.322a2.23 2.23 0 0 1-2.263-1.619l-11.142-39.413a2.227 2.227 0 0 1 1.081-2.563l38.02-20.642a172.803 172.803 0 0 1-.404-25.956l-38.525-19.568a2.227 2.227 0 0 1-1.151-2.532l10.058-39.704c.254-1.01 1.138-1.719 2.217-1.68l43.262 1.134a174.84 174.84 0 0 1 12.653-22.626l-23.618-36.263a2.225 2.225 0 0 1 .27-2.768l28.561-29.357a2.228 2.228 0 0 1 2.76-.346l36.842 22.579c6.985-4.902 14.483-9.351 22.325-13.247l-2.32-43.201a2.225 2.225 0 0 1 1.618-2.262l39.413-11.143a2.23 2.23 0 0 1 2.564 1.081l20.642 38.021c8.724-.787 17.443-.922 25.957-.403l19.567-38.526a2.225 2.225 0 0 1 2.533-1.151l39.703 10.058a2.226 2.226 0 0 1 1.68 2.217l-1.134 43.26a174.805 174.805 0 0 1 22.625 12.653l36.264-23.617a2.229 2.229 0 0 1 2.769.27l29.356 28.562c.746.726.89 1.872.346 2.76l-22.578 36.842c4.9 6.983 9.349 14.481 13.246 22.326l43.2-2.32a2.239 2.239 0 0 1 2.264 1.617l11.143 39.414a2.229 2.229 0 0 1-1.081 2.563l-38.022 20.641c.787 8.722.922 17.439.403 25.958l38.525 19.567a2.226 2.226 0 0 1 1.151 2.533l-10.056 39.703c-.256 1.01-1.201 1.717-2.218 1.68l-43.26-1.135a174.77 174.77 0 0 1-12.653 22.625l23.616 36.265a2.226 2.226 0 0 1-.27 2.768l-28.561 29.357a2.228 2.228 0 0 1-2.759.346l-36.843-22.579a172.616 172.616 0 0 1-22.325 13.246l2.319 43.201a2.225 2.225 0 0 1-1.618 2.262l-39.413 11.143a2.228 2.228 0 0 1-2.563-1.08l-20.641-38.022c-8.717.788-17.435.922-25.957.404l-19.568 38.527a2.228 2.228 0 0 1-1.986 1.218Z" style="fill-rule:nonzero"/><path d="M2062.63 337.227h-460.72c-17.98 0-32.55 14.574-32.55 32.551v508.324c0 17.977 14.57 32.551 32.55 32.551h460.72c17.98 0 32.55-14.574 32.55-32.551V369.778c0-17.977-14.57-32.551-32.55-32.551Z" style="fill:#fff;fill-rule:nonzero"/><path d="M1601.91 339.454c-16.72 0-30.32 13.604-30.32 30.324v508.324c0 16.72 13.6 30.324 30.32 30.324h460.72c16.72 0 30.33-13.604 30.33-30.324V369.778c0-16.72-13.61-30.324-30.33-30.324h-460.72Zm460.72 573.426h-460.72c-19.17 0-34.78-15.602-34.78-34.778V369.778c0-19.177 15.61-34.778 34.78-34.778h460.72c19.18 0 34.78 15.601 34.78 34.778v508.324c0 19.176-15.6 34.778-34.78 34.778Z" style="fill-rule:nonzero"/><path d="M2069.73 392.871h-474.5c-1.23 0-2.22-.997-2.22-2.227s.99-2.227 2.22-2.227h474.5c1.23 0 2.22.997 2.22 2.227s-.99 2.227-2.22 2.227ZM1611.93 362.266c0 4.61-3.74 8.347-8.35 8.347-4.61 0-8.35-3.737-8.35-8.347 0-4.609 3.74-8.346 8.35-8.346 4.61 0 8.35 3.737 8.35 8.346ZM1645.31 362.266c0 4.61-3.73 8.347-8.34 8.347-4.61 0-8.35-3.737-8.35-8.347 0-4.609 3.74-8.346 8.35-8.346 4.61 0 8.34 3.737 8.34 8.346ZM1678.7 362.266c0 4.61-3.74 8.347-8.35 8.347-4.61 0-8.34-3.737-8.34-8.347 0-4.609 3.73-8.346 8.34-8.346 4.61 0 8.35 3.737 8.35 8.346ZM2069.73 364.493h-47.02a2.23 2.23 0 0 1-2.23-2.227c0-1.229 1-2.227 2.23-2.227h47.02c1.23 0 2.22.998 2.22 2.227 0 1.23-.99 2.227-2.22 2.227ZM2001.56 364.493h-194.74a2.23 2.23 0 0 1-2.23-2.227c0-1.229 1-2.227 2.23-2.227h194.74c1.23 0 2.23.998 2.23 2.227 0 1.23-1 2.227-2.23 2.227ZM1755.62 364.493h-41.45a2.23 2.23 0 0 1-2.23-2.227c0-1.229 1-2.227 2.23-2.227h41.45c1.23 0 2.23.998 2.23 2.227 0 1.23-1 2.227-2.23 2.227Z" style="fill-rule:nonzero"/><path d="M1752.5 609.209c15.17-26.543 43.4-45.288 76.2-48.682l2.28-129.753c-94.22.316-177.38 53.401-215.25 131.86l136.77 46.575Z" style="fill:#fff;fill-rule:nonzero"/><path d="m1618.85 561.342 132.64 45.173c15.74-26.345 43.55-44.129 75.01-47.982l2.21-125.513c-89.63 1.129-171.54 51.229-209.86 128.322Zm133.65 50.095c-.24 0-.49-.039-.72-.119l-136.76-46.575a2.227 2.227 0 0 1-1.29-3.076c38.88-80.556 124.15-132.808 217.24-133.12.66.025 1.17.238 1.59.664.42.426.65 1.004.64 1.602l-2.28 129.753a2.22 2.22 0 0 1-1.99 2.176c-31.49 3.258-59.34 21.042-74.5 47.573a2.229 2.229 0 0 1-1.93 1.122Z" style="fill-rule:nonzero"/><path d="M1746.06 468.272c-.88 0-1.72-.525-2.07-1.392a2.23 2.23 0 0 1 1.23-2.9 230.309 230.309 0 0 1 66.61-15.964 2.223 2.223 0 0 1 2.41 2.026 2.223 2.223 0 0 1-2.02 2.411 225.89 225.89 0 0 0-65.33 15.656 2.21 2.21 0 0 1-.83.163ZM1671 518.308c-.57 0-1.13-.211-1.56-.636-.88-.86-.9-2.27-.03-3.149 16.05-16.392 34.67-30.208 55.36-41.066a2.231 2.231 0 0 1 3.01.937 2.229 2.229 0 0 1-.94 3.007c-20.27 10.641-38.53 24.18-54.25 40.239-.44.445-1.02.668-1.59.668Z" style="fill-rule:nonzero"/><path d="M1934.26 666.713c-7.73 42.633-46.57 76.15-94.14 77.629-14.19.442-27.75-2.008-40.05-6.802l-74.27 114.989c34.53 15.583 73.52 23.218 114.32 20.874 118.62-6.815 211.89-96.115 222.25-203.621l-128.11-3.069Z" style="fill:#fff;fill-rule:nonzero"/><path d="M1729.09 851.551c34.35 15.044 72.64 21.826 110.9 19.629 114.23-6.563 208.33-92.014 219.92-199.229l-123.82-2.966c-8.86 43.615-48.87 76.12-95.9 77.583-13.58.421-26.75-1.699-39.22-6.306l-71.88 111.289Zm96.79 24.488c-35.03.001-69.66-7.338-100.99-21.48a2.224 2.224 0 0 1-.95-3.238l74.26-114.989a2.227 2.227 0 0 1 2.68-.867c12.41 4.836 25.58 7.073 39.17 6.651 45.61-1.418 84.31-33.297 92.01-75.8.2-1.08 1.19-1.842 2.25-1.83l128.11 3.069a2.227 2.227 0 0 1 2.16 2.441c-10.64 110.492-107.09 198.895-224.34 205.63-4.78.275-9.58.413-14.36.413Z" style="fill-rule:nonzero"/><path d="M1825.65 857.439c-25.03 0-49.46-3.962-72.61-11.775a2.228 2.228 0 0 1 1.42-4.221c22.69 7.659 46.64 11.542 71.19 11.542 4.41 0 8.87-.128 13.27-.381a2.225 2.225 0 0 1 2.35 2.094 2.222 2.222 0 0 1-2.09 2.352c-4.49.258-9.04.389-13.53.389ZM1885.95 849.41c-.98 0-1.88-.652-2.15-1.642a2.234 2.234 0 0 1 1.56-2.735c77.93-21.249 138.11-83.111 153.32-157.6a2.23 2.23 0 0 1 4.37.891c-15.55 76.121-76.98 139.319-156.52 161.007-.19.053-.39.079-.58.079Z" style="fill-rule:nonzero"/><path d="m1702.56 840.433 74.95-115.329c-22.42-16.599-36.83-42.43-36.83-71.728 0-7.078.85-13.98 2.45-20.624l-137.28-46.018a211.33 211.33 0 0 0-11.36 68.437c0 78.891 43.29 146.814 108.07 185.262Z" style="fill:#fff;fill-rule:nonzero"/><path d="M1607.25 589.553a209.258 209.258 0 0 0-10.53 65.618c0 74.363 39.26 142.335 105.14 182.247l72.65-111.79c-22.94-17.747-36.06-43.964-36.06-72.252 0-6.43.69-12.863 2.06-19.154l-133.26-44.669Zm95.31 253.107c-.39 0-.78-.101-1.14-.313-68.35-40.565-109.16-110.537-109.16-187.176 0-23.569 3.87-46.837 11.48-69.156a2.219 2.219 0 0 1 2.81-1.393l137.29 46.018a2.227 2.227 0 0 1 1.45 2.632 86.22 86.22 0 0 0-2.38 20.104c0 27.542 13.09 53.034 35.92 69.937.95.701 1.19 2.018.55 3.004l-74.95 115.329a2.235 2.235 0 0 1-1.87 1.014Z" style="fill-rule:nonzero"/><path d="M1871.26 555.621c43.33 6.447 76.64 40.024 80.6 81.52l209.49 6.07v-.265c0-153.685-122.45-285.207-286.34-302.137l-3.75 214.812Z" style="fill:#fff;fill-rule:nonzero"/><path d="m1953.87 634.971 205.25 5.947c-1.06-152.575-121.73-279.95-281.92-297.636l-3.68 210.442c42.88 7.203 75.52 40.222 80.35 81.247Zm207.46 10.467h-.04l-209.5-6.071a2.23 2.23 0 0 1-2.15-2.014c-3.86-40.504-36.23-73.208-78.71-79.529a2.225 2.225 0 0 1-1.9-2.242l3.75-214.812a2.25 2.25 0 0 1 .75-1.628 2.244 2.244 0 0 1 1.71-.549c79.52 8.215 152.69 43.897 206.02 100.473 53.09 56.313 82.32 128.719 82.32 203.88 0 .602-.24 1.31-.67 1.73-.43.409-.99.762-1.58.762Z" style="fill-rule:nonzero"/><path d="M1636.38 587.613h-274.19c-13.52 0-24.47 10.953-24.47 24.465v364.319c0 13.512 10.95 24.463 24.47 24.463h274.19c13.51 0 24.46-10.951 24.46-24.463V612.078c0-13.512-10.95-24.465-24.46-24.465Z" style="fill:#fff;fill-rule:nonzero"/><path d="M1362.19 589.84c-12.27 0-22.24 9.976-22.24 22.238v364.319c0 12.263 9.97 22.239 22.24 22.239h274.19c12.26 0 22.24-9.976 22.24-22.239V612.078c0-12.262-9.98-22.238-22.24-22.238h-274.19Zm274.19 413.25h-274.19c-14.72 0-26.7-11.974-26.7-26.693V612.078c0-14.718 11.98-26.692 26.7-26.692h274.19c14.72 0 26.69 11.974 26.69 26.692v364.319c0 14.719-11.97 26.693-26.69 26.693Z" style="fill-rule:nonzero"/><path style="fill:#fff;fill-rule:nonzero" d="M1376.13 705.712h70.39v231.306h-70.39z"/><path d="M1378.36 934.792h65.93V707.939h-65.93v226.853Zm68.16 4.454h-70.39c-1.23 0-2.22-.997-2.22-2.227V705.712c0-1.23.99-2.227 2.22-2.227h70.39c1.23 0 2.23.997 2.23 2.227v231.307c0 1.23-1 2.227-2.23 2.227Z" style="fill-rule:nonzero"/><path style="fill:#fff;fill-rule:nonzero" d="M1464.09 641.881h70.39v295.137h-70.39z"/><path d="M1466.32 934.792h65.93V644.108h-65.93v290.684Zm68.15 4.454h-70.38a2.23 2.23 0 0 1-2.23-2.227V641.881c0-1.23 1-2.227 2.23-2.227h70.38c1.24 0 2.23.997 2.23 2.227v295.138c0 1.23-.99 2.227-2.23 2.227Z" style="fill-rule:nonzero"/><path style="fill:#fff;fill-rule:nonzero" d="M1552.04 799.119h70.39v137.899h-70.39z"/><path d="M1554.27 934.792h65.93V801.346h-65.93v133.446Zm68.16 4.454h-70.39c-1.23 0-2.22-.997-2.22-2.227v-137.9c0-1.23.99-2.227 2.22-2.227h70.39c1.23 0 2.23.997 2.23 2.227v137.9c0 1.23-1 2.227-2.23 2.227Z" style="fill-rule:nonzero"/><path d="m1089.4 1831.54 6.15 58.6 39.62 4.64v-69.47l-45.77 6.23Z" style="fill:#fff;fill-rule:nonzero"/><path d="m1097.58 1888.13 35.36 4.15v-64.42l-41.1 5.6 5.74 54.67Zm37.59 8.88c-.08 0-.17 0-.26-.01l-39.62-4.65a2.223 2.223 0 0 1-1.95-1.98l-6.15-58.59a2.22 2.22 0 0 1 1.91-2.44l45.77-6.24a2.23 2.23 0 0 1 2.53 2.21v69.47c0 .64-.27 1.24-.75 1.67-.41.36-.94.56-1.48.56Z" style="fill-rule:nonzero"/><path d="M1141.41 1996.79c-16.51 2.32-43.59 4.37-75.37-.03-10.42-1.44-17.32-11.55-14.81-21.76 7-28.45 19.06-82.41 39.75-107.41l5.15 13.56 7.1-12.77a6.275 6.275 0 0 1 4.7-3.18l15.56-1.98a6.288 6.288 0 0 1 6.94 4.95l2.48 11.77 5.42-15.45 18.09 112.47c1.27 9.61-5.41 18.48-15.01 19.83Z" style="fill:#fff;fill-rule:nonzero"/><path d="M1090.31 1872.08c-17.57 23.95-28.67 69.57-35.42 97.3l-1.5 6.15c-1.05 4.3-.27 8.69 2.22 12.35 2.46 3.64 6.38 6.07 10.74 6.67 31.24 4.33 57.89 2.41 74.75.03 8.34-1.17 14.22-8.95 13.11-17.33l-16.69-103.75-2.51 7.17c-.33.95-1.26 1.55-2.25 1.49-1-.07-1.83-.79-2.03-1.77l-2.48-11.76a4.077 4.077 0 0 0-4.48-3.2l-15.56 1.98c-1.28.16-2.41.92-3.04 2.05l-7.1 12.77a2.23 2.23 0 0 1-4.03-.29l-3.73-9.86Zm13.64 129.5c-11.58 0-24.46-.71-38.22-2.62-5.6-.77-10.64-3.9-13.81-8.58a19.864 19.864 0 0 1-2.85-15.91l1.5-6.14c7.14-29.35 19.08-78.46 38.7-102.16a2.227 2.227 0 0 1 3.8.63l3.44 9.08 4.77-8.58a8.536 8.536 0 0 1 6.37-4.31l15.56-1.98c4.34-.55 8.49 2.39 9.4 6.7l.83 3.97 2.79-7.93c.34-.96 1.29-1.57 2.3-1.48 1.01.09 1.84.86 2 1.86l18.09 112.48c1.43 10.86-6.15 20.87-16.9 22.38l-.31-2.2.31 2.2c-9.71 1.37-22.62 2.59-37.77 2.59Z" style="fill-rule:nonzero"/><path d="M1095.52 1982.73c-10.56 0-21.99-.94-33.38-3.53a2.238 2.238 0 0 1-1.68-2.67c.28-1.2 1.48-1.95 2.67-1.67 38.82 8.84 79.48-2.53 79.89-2.65a2.226 2.226 0 0 1 1.22 4.28c-1.21.35-22.24 6.24-48.72 6.24ZM1086.06 1939.16c-1.2 0-2.19-.95-2.23-2.16-.04-1.23.93-2.25 2.15-2.3l37.14-1.22c1.22-.01 2.26.92 2.3 2.15.04 1.23-.92 2.26-2.15 2.3l-37.14 1.23h-.07Z" style="fill-rule:nonzero"/><path d="m1274.97 1800.34 5.94 85.51h47.68l2.21-85.51h-55.83Z" style="fill:#fff;fill-rule:nonzero"/><path d="M1282.99 1883.63h43.42l2.11-81.06h-51.16l5.63 81.06Zm45.6 4.45h-47.68c-1.17 0-2.14-.91-2.22-2.07l-5.94-85.51c-.04-.62.17-1.22.6-1.67a2.19 2.19 0 0 1 1.62-.71h55.83c.6 0 1.18.24 1.6.67.42.43.64 1.01.63 1.61l-2.22 85.51a2.224 2.224 0 0 1-2.22 2.17Z" style="fill-rule:nonzero"/><path d="M1268.46 1934.13c-.12 8.08 5.4 15.19 13.28 17.02 27.41 6.38 89.15 20.58 106.76 23.2 22.86 3.41 50.95-3.6 63.03-16.97 12.07-13.36-27.05-45.29-45.61-56.9-27.58-17.25-54.08-51.36-65.19-52.89-11.11-1.54-31.85 30.7-31.85 30.7l-33.91-14.24s-5.9 29.05-6.51 70.08Z" style="fill:#fff;fill-rule:nonzero"/><path d="M1268.46 1934.13h.02-.02Zm8.2-66.96c-1.43 8.08-5.48 33.7-5.98 66.99-.1 7 4.76 13.24 11.57 14.82 26.17 6.09 88.95 20.55 106.58 23.17 22.92 3.41 49.73-3.73 61.05-16.26 1.41-1.56 1.93-3.51 1.59-5.94-1.98-14.2-31.42-38-46.73-47.58-13.95-8.73-27.28-21.37-39.04-32.53-10.5-9.96-20.42-19.37-25.28-20.04-7.04-.99-21.94 17.69-29.67 29.69-.59.91-1.74 1.27-2.73.85l-31.36-13.17Zm123.8 110.27c-4.15 0-8.28-.29-12.29-.88-17.79-2.65-80.71-17.14-106.93-23.24-8.83-2.06-15.14-10.14-15.01-19.23.61-40.76 6.5-70.19 6.56-70.49.13-.65.55-1.21 1.14-1.52.59-.31 1.29-.34 1.91-.08l32.19 13.52c5.25-7.94 21.97-31.66 33-30.14 6.28.87 15.28 9.41 27.74 21.23 11.61 11.01 24.76 23.49 38.33 31.98 14.91 9.33 46.45 34 48.78 50.74.53 3.77-.38 6.98-2.7 9.55-10.19 11.28-31.77 18.56-52.72 18.56Z" style="fill-rule:nonzero"/><path d="M1399.98 1961.77c-49.54 0-116.15-26.91-119.91-28.45a2.216 2.216 0 0 1-1.22-2.9 2.227 2.227 0 0 1 2.9-1.22c1.22.5 121.96 49.29 157.5 17.19.92-.82 2.33-.75 3.15.16.82.91.75 2.32-.16 3.15-9.73 8.79-24.96 12.07-42.26 12.07ZM1347.14 1909.95c-.6 0-1.21-.25-1.65-.73-.82-.92-.75-2.32.16-3.15l24.25-21.87c.91-.82 2.32-.75 3.14.16.83.91.76 2.32-.16 3.15l-24.25 21.87c-.42.38-.95.57-1.49.57ZM1075.88 1242.9s-14.77 267.31-22.5 359.59c-7.73 92.28 18.08 240.61 18.08 240.61l73.59-3.87s5.04-180.35 10.51-230.43c0 0 31.08-67.9 40.29-128.45 9.21-60.56 40.6-156.2 40.6-156.2s25.48 477.39 27.94 514.89c0 0 57.7 2.57 78.39-10.44 0 0 36.66-174.07 31.39-268.78-5.26-94.71.52-330.02.52-330.02l-298.81 13.1Z" style="fill-rule:nonzero"/><path d="M1142.01 1611.01h-22.5c-1.23 0-2.23-1-2.23-2.23s1-2.23 2.23-2.23h22.5c1.23 0 2.22 1 2.22 2.23s-.99 2.23-2.22 2.23ZM1397.98 815.382c5.36-.421 31.66 53.431 113.94 51.175 82.29-2.257 148.31-94.338 148.31-94.338s28.42-47.921 49.99-65.245c21.57-17.325 24.95-19.611 24.95-19.611s6.76 9.009 0 19.611c-6.76 10.601-25.43 30.435-25.43 30.435s20.57 11.292 11.29 34.81c-10.67 27.05-40.73 24.875-40.73 24.875s-61.01 270.126-313.16 141.763l30.84-123.475Z" style="fill:#fff;fill-rule:nonzero"/><path d="M1369.73 937.673c73.98 37.285 138.46 43.531 191.69 18.557 89.14-41.828 116.44-158.454 116.71-159.627a2.238 2.238 0 0 1 2.33-1.73c1.16.084 28.58 1.693 38.5-23.471 8.42-21.353-9.53-31.617-10.3-32.044a2.243 2.243 0 0 1-1.12-1.606c-.1-.678.11-1.369.58-1.87.18-.196 18.6-19.803 25.17-30.106 4.13-6.469 2.53-12.25 1.19-15.136-2.74 2.077-9.05 6.97-22.86 18.07-21.01 16.876-49.19 64.169-49.47 64.644-.77 1.092-67.72 93.168-150.16 95.428-1.74.048-3.45.072-5.14.072-62.73.003-91.66-32.267-104.2-46.256-1.16-1.289-2.34-2.603-3.28-3.573l-29.64 118.648Zm122.45 38.015c-38.29 0-80.44-11.627-126.05-34.847a2.221 2.221 0 0 1-1.15-2.524l30.84-123.475a2.222 2.222 0 0 1 1.99-1.68c2.21-.173 3.95 1.77 8.15 6.463 12.47 13.905 41.66 46.481 105.9 44.705 80.26-2.201 145.91-92.497 146.56-93.409 1.07-1.809 28.77-48.307 50.41-65.683 21.39-17.186 24.95-19.626 25.09-19.721a2.228 2.228 0 0 1 3.03.509c.32.418 7.6 10.378.1 22.145-5.63 8.829-19.04 23.584-23.91 28.85 5.43 4.055 17.86 15.997 9.96 36.015-9.54 24.206-34.05 26.241-41.06 26.313-3.84 14.998-33.7 120.995-118.71 160.902-21.93 10.295-45.69 15.437-71.15 15.437Z" style="fill-rule:nonzero"/><path d="M990.14 938.857s24.69-159.388 111.94-198.605c87.24-39.215 205.27-33.762 237.82-14.178 32.54 19.584 117.38 108.129 117.38 108.129l-74.97 104.654s17.14 281.713 3.59 356.093c0 0-83.39 9.72-118.76-4.21-35.37-13.93-151.67-33.44-207.26-7.9l10.1-356.675-79.84 12.692Z" style="fill:#fff;fill-rule:nonzero"/><path d="M1135.45 1268.15c52.73 0 109.67 11.53 132.5 20.52 31.75 12.5 104.2 5.5 116.05 4.24 12.81-75.67-3.74-351.124-3.91-353.918a2.28 2.28 0 0 1 .41-1.432l73.89-103.147c-10.75-11.139-85.89-88.527-115.64-106.431-30.63-18.431-148.47-24.936-235.76 14.302-78.57 35.318-106.14 171.753-110.128 193.885l76.768-12.203a2.21 2.21 0 0 1 1.82.526c.5.437.78 1.074.76 1.737l-10 353.161c19.72-8.14 45.92-11.24 73.24-11.24Zm191.6 32.37c-22.15 0-45.58-1.74-60.73-7.71-34.82-13.71-149.95-33.48-205.51-7.95-.7.32-1.51.26-2.16-.17a2.231 2.231 0 0 1-1-1.92l10.03-353.984-77.191 12.27a2.228 2.228 0 0 1-2.55-2.54c1.016-6.557 25.881-161.035 113.221-200.295 85.98-38.646 204.8-35.168 239.89-14.056 32.42 19.513 114.36 104.873 117.84 108.497.74.774.82 1.966.2 2.838l-74.51 104.012c.99 16.62 16.6 283.988 3.51 355.838a2.23 2.23 0 0 1-1.93 1.81c-1.97.23-29.38 3.36-59.11 3.36Z" style="fill-rule:nonzero"/><path d="M1136.51 1211.56a2.227 2.227 0 0 1-.38-4.42c132.6-23.44 171.31-115.25 171.68-116.17a2.232 2.232 0 0 1 2.9-1.23c1.14.46 1.69 1.76 1.23 2.9-.38.95-39.9 95-175.04 118.88-.13.03-.26.04-.39.04ZM1376 1050.26h-169.77l53.18-189.634h169.76L1376 1050.26Z" style="fill-rule:nonzero"/><path d="m1005.11 939.47 85.92-38.408s-12.1 145.578 161.73 78.355c0 0-6.41-18.707-5.5-40.56.9-21.853 13.98-.708 15.81 17.052 1.83 17.761 42.64 10.552 67.17 3.553 24.52-7 56.72-2.416 0 28.87-56.72 31.288-69.15 17.328-69.15 17.328s-72.44 101.36-162.56 79.83c-110.85-26.49-93.42-146.02-93.42-146.02Z" style="fill:#fff;fill-rule:nonzero"/><path d="M1007.16 940.99c-.66 5.868-2.97 32.398 5.27 61.09 12.4 43.14 41.54 70.47 86.62 81.24 8.38 2 16.63 2.91 24.68 2.91 76.08.01 134.9-80.96 135.55-81.86.39-.55 1.01-.89 1.69-.93.7-.04 1.33.24 1.78.74.08.07 12.82 11.76 66.41-17.799 32.08-17.696 30.59-24.069 30.32-24.738-1.37-3.328-14.45-4.087-28.63-.039-11.5 3.281-50.14 13.231-64.54 3.481-3.24-2.188-5.07-5.198-5.46-8.948-1.33-12.908-7.87-23.985-10.05-24.362.04.08-1.07 1.267-1.32 7.174-.88 21.15 5.33 39.564 5.39 39.747a2.234 2.234 0 0 1-1.31 2.799c-59.4 22.975-103.92 23.845-132.33 2.586-31.53-23.594-32.94-66.585-32.6-79.507l-81.47 36.416Zm116.52 149.69c-8.37 0-16.93-.94-25.67-3.03-58.3-13.93-81.07-53.63-89.9-84.49-9.523-33.272-5.39-62.772-5.21-64.012.11-.754.6-1.4 1.3-1.711l85.92-38.408a2.24 2.24 0 0 1 2.2.216c.64.455.99 1.216.93 2.001-.05.53-3.97 53.389 30.67 79.284 26.79 20.03 69.21 19.206 126.09-2.442-1.64-5.497-5.73-21.251-4.98-39.324.12-2.791.47-11.285 5.64-11.444l.12-.002c6.72 0 13.31 16.868 14.49 28.363.25 2.411 1.4 4.281 3.52 5.716 10.19 6.894 39.13 2.113 60.82-4.077 11.38-3.246 30.67-5.405 33.98 2.625 2.83 6.869-7.73 16.792-32.29 30.337-46.47 25.638-64.14 21.608-69.76 18.468-9.33 12.19-65.93 81.93-137.87 81.93ZM1234.45 667.61c-7.42 6.795-21.93 15.094-33.29 9.375-8.45-4.258-13.17-15.289-12.88-27.926-3.92.32-9.05.045-12.71-3.192-5.64-4.983-4.59-14.152-4.36-20.178 1.01-27.812-15.14-32.078-11.19-50.952 3.11-14.834 14.76-23.671 16.94-25.323 11-8.345 18.45-5.651 36.94-10.496 31.12-8.151 32.11-21.564 52.61-21.626 1.19-.003 29.09.304 38.56 19.581 7.7 15.678-1.29 34.733-10.59 44.744-12.05 12.965-20.7 6.558-32.78 17.431-21.22 19.086-5.2 48.377-27.25 68.562Z" style="fill-rule:nonzero"/><path d="m1296.55 617.985-1.22-1.057c-6.16-5.307-12.57-11.47-14.21-19.432-6.94-33.853-37.96-46.144-39.39-15.058-.36 7.844-29 7.437-25.6 15.672 8.86 21.466 9.05 15.691-3.45 23.601-1.42.06-2.83.368-4.15.988-6.42 2.989-8.69 11.697-5.08 19.45 2.2 4.705 6.06 7.944 10.19 9.122v33.915a31.304 31.304 0 0 1-19.46 28.975l-11.45 4.681s53.4 34.853 107.6-3.413l-7.24-3.245a36.493 36.493 0 0 1-21.54-32.151l-.06-6.63c3.65.324 7.18.077 10.44-.871 15.16-4.411 20.19-21.879 17.61-43.593l6.18-3.316c2.88-1.548 3.31-5.502.83-7.638Z" style="fill:#fff;fill-rule:nonzero"/><path d="M1187.82 719.168c12.74 6.677 54.99 24.639 97.96-3.34l-3.6-1.612c-13.42-6.019-22.39-19.41-22.85-34.113l-.06-6.68a2.22 2.22 0 0 1 2.42-2.238c3.5.311 6.74.045 9.62-.791 12.85-3.739 18.69-18.753 16.02-41.193-.1-.909.35-1.791 1.16-2.224l6.17-3.316a2.403 2.403 0 0 0 1.27-1.88 2.39 2.39 0 0 0-.83-2.109v-.001l-1.23-1.057c-6.28-5.415-13.13-11.926-14.93-20.671-4-19.505-16.44-31.839-25.53-31.13-5.57.437-9.01 6.169-9.45 15.727-.25 5.363-7.4 7.367-14.97 9.488-4.22 1.184-10.01 2.807-10.86 4.541-.05.097-.12.258.05.691 1.28 3.098 2.38 5.625 3.29 7.707 4.18 9.645 5.05 11.652-2.25 15.555-1.42.761-3.2 1.707-5.35 3.072-.33.208-.71.326-1.1.343-1.19.049-2.3.312-3.3.78-5.29 2.467-7.09 9.865-4 16.491 1.83 3.913 5.11 6.874 8.78 7.921a2.23 2.23 0 0 1 1.61 2.142v33.915c0 13.677-8.18 25.86-20.84 31.036l-7.2 2.946Zm47.71 16.308c-30.85 0-53.67-14.539-54.02-14.769a2.23 2.23 0 0 1-1-2.077c.08-.823.61-1.536 1.37-1.849l11.46-4.681c10.97-4.49 18.07-15.054 18.07-26.914v-32.328c-4.26-1.71-7.84-5.192-9.97-9.767-4.13-8.854-1.37-18.907 6.15-22.411a12.85 12.85 0 0 1 4.38-1.155c2.07-1.287 3.77-2.193 5.15-2.931 1.58-.844 3.07-1.641 3.11-2.044.1-1.013-1.14-3.863-2.85-7.808-.91-2.103-2.02-4.655-3.31-7.782-.62-1.494-.6-2.994.06-4.34 1.72-3.534 7.25-5.085 13.66-6.881 4.63-1.297 11.62-3.257 11.72-5.404.79-17.119 9.74-19.663 13.55-19.962 10.96-.852 25.62 12.154 30.25 34.675 1.51 7.372 7.75 13.257 13.47 18.193l1.23 1.058a6.878 6.878 0 0 1 2.35 5.969 6.89 6.89 0 0 1-3.59 5.316l-4.85 2.604c2.49 23.99-4.53 40.164-19.37 44.482-2.72.79-5.69 1.152-8.81 1.087l.04 4.256c.41 12.962 8.35 24.812 20.22 30.139l7.24 3.245a2.208 2.208 0 0 1 1.3 1.817c.08.797-.27 1.574-.93 2.035-19.52 13.779-39.03 18.227-56.08 18.227Z" style="fill-rule:nonzero"/><path d="M1261.5 675.63c-.12 0-.23-.008-.34-.026-21.86-3.35-31.67-20.026-32.08-20.734a2.228 2.228 0 0 1 3.86-2.224c.09.155 9.22 15.54 28.89 18.556a2.217 2.217 0 0 1 1.86 2.538 2.212 2.212 0 0 1-2.19 1.89ZM537.413 931.408a16.58 16.58 0 0 0-6.212 1.21c-8.517 3.438-12.649 13.166-9.212 21.686a16.557 16.557 0 0 0 8.935 9.101 16.546 16.546 0 0 0 12.749.119c8.518-3.438 12.65-13.166 9.213-21.687-2.617-6.483-8.877-10.429-15.473-10.429Zm.025 37.791c-2.802 0-5.601-.565-8.257-1.695a20.977 20.977 0 0 1-11.322-11.533c-4.359-10.798.881-23.127 11.676-27.483 10.795-4.357 23.125.885 27.481 11.682 4.357 10.799-.881 23.128-11.677 27.484a21.065 21.065 0 0 1-7.901 1.545ZM2093.79 1016.05a2.228 2.228 0 0 1-1.61-3.77l10.44-10.91c.84-.89 2.26-.92 3.14-.07.89.85.92 2.26.07 3.15l-10.43 10.91c-.44.46-1.03.69-1.61.69ZM2057.26 1054.23c-.56 0-1.11-.2-1.54-.62-.89-.85-.92-2.26-.07-3.15l10.43-10.9c.85-.89 2.26-.92 3.15-.07.89.85.92 2.26.07 3.14l-10.43 10.91c-.44.46-1.03.69-1.61.69ZM2067.5 1016.63c-.57 0-1.13-.21-1.57-.64l-10.59-10.44c-.88-.86-.89-2.27-.03-3.15.87-.87 2.28-.89 3.15-.02l10.6 10.44c.88.86.89 2.27.02 3.15-.43.44-1.01.66-1.58.66ZM2104.58 1053.18c-.57 0-1.13-.21-1.56-.64l-10.6-10.44c-.88-.87-.89-2.28-.02-3.15.86-.88 2.27-.89 3.15-.03l10.59 10.45c.88.86.89 2.27.03 3.15-.44.44-1.02.66-1.59.66ZM1337.54 379.207a2.226 2.226 0 0 1-1.61-3.767l10.44-10.909c.85-.889 2.26-.92 3.15-.07.88.851.92 2.261.06 3.149l-10.43 10.91c-.44.457-1.03.687-1.61.687ZM1301.01 417.39a2.225 2.225 0 0 1-1.61-3.766l10.43-10.91a2.228 2.228 0 0 1 3.22 3.079l-10.43 10.91c-.44.457-1.03.687-1.61.687ZM1311.25 379.792c-.57 0-1.13-.213-1.57-.641l-10.59-10.442a2.226 2.226 0 0 1-.03-3.149 2.228 2.228 0 0 1 3.15-.023l10.6 10.442c.88.863.89 2.273.02 3.149-.43.442-1.01.664-1.58.664ZM1348.33 416.338c-.56 0-1.13-.213-1.56-.641l-10.6-10.442a2.218 2.218 0 0 1-.02-3.15 2.227 2.227 0 0 1 3.15-.022l10.59 10.441c.88.864.89 2.273.03 3.15-.44.442-1.01.664-1.59.664Z" style="fill-rule:nonzero"/><path d="m1016.44 1778.46-33.817 346.3-24.134-1.01 11.99-364.05 45.961 18.76Z" style="fill:#fff;fill-rule:nonzero"/><path d="m960.788 2121.62 19.824.83 33.448-342.55-41.46-16.93-11.812 358.65Zm21.836 5.37h-.094l-24.135-1.02a2.22 2.22 0 0 1-2.132-2.29l11.99-364.06c.024-.72.403-1.39 1.015-1.79.613-.4 1.379-.47 2.053-.19l45.959 18.76c.92.37 1.47 1.3 1.38 2.28l-33.82 346.3a2.23 2.23 0 0 1-2.216 2.01Z" style="fill-rule:nonzero"/><path d="m562.805 1766 33.004 359.63 24.949-1.88-11.99-377.19-45.963 19.44Z" style="fill:#fff;fill-rule:nonzero"/><path d="m565.17 1767.42 32.656 355.82 20.639-1.55-11.82-371.81-41.475 17.54Zm30.636 360.43c-1.14 0-2.11-.87-2.215-2.02l-33.004-359.62a2.23 2.23 0 0 1 1.349-2.26l45.963-19.44a2.205 2.205 0 0 1 2.069.18 2.213 2.213 0 0 1 1.025 1.8l11.991 377.19a2.227 2.227 0 0 1-2.059 2.29l-24.95 1.88h-.169Z" style="fill-rule:nonzero"/><path d="m447.919 1681.38 9.708 377.63 19.485-4.22 17.866-391.37-47.059 17.96Z" style="fill:#fff;fill-rule:nonzero"/><path d="m450.186 1682.9 9.599 373.36 15.181-3.29 17.634-386.25-42.414 16.18Zm7.441 378.34a2.236 2.236 0 0 1-2.226-2.17l-9.708-377.63c-.025-.95.549-1.8 1.432-2.14l47.061-17.96c.697-.26 1.49-.16 2.098.28.608.44.954 1.16.92 1.91l-17.867 391.36a2.216 2.216 0 0 1-1.753 2.07l-19.484 4.23c-.157.03-.315.05-.473.05Z" style="fill-rule:nonzero"/><path d="m828.615 1672.94 9.709 377.62 20.243.11 17.108-395.69-47.06 17.96Z" style="fill:#fff;fill-rule:nonzero"/><path d="M730.801 1378.01v87.87c0 85.93 67.776 155.6 151.38 155.6 83.605 0 151.379 69.66 151.379 155.59 0 7.66-6.19 13.87-13.84 13.87H619.01c-125.334 0-226.938-104.44-226.938-233.26v-187.49c0-51.23 40.411-92.77 90.261-92.77h150.601c54.051 0 97.867 45.04 97.867 100.59Z" style="fill:#fff;fill-rule:nonzero"/><path d="M482.333 1279.65c-48.542 0-88.034 40.62-88.034 90.54v187.49c0 127.39 100.805 231.03 224.711 231.03h400.71c6.4 0 11.61-5.22 11.61-11.64 0-84.57-66.906-153.37-149.148-153.37-84.7 0-153.607-70.8-153.607-157.82v-87.87c0-54.24-42.905-98.36-95.641-98.36H482.333Zm537.387 513.51H619.01c-126.363 0-229.165-105.64-229.165-235.48v-187.49c0-52.38 41.49-95 92.488-95h150.601c55.192 0 100.095 46.13 100.095 102.82v87.87c0 84.57 66.909 153.37 149.153 153.37 84.698 0 153.608 70.8 153.608 157.82 0 8.87-7.21 16.09-16.07 16.09Z" style="fill-rule:nonzero"/><path d="M353.261 1214.07c-6.144-2.54-11.551-6.97-14.955-13.04-5.037-8.99-7.734-23.38 3.589-43.94 25.573-46.44 68.281-24.48 84.622-29.86 36.614-12.06 27.953-31.85 42.825-51.08 11.126-14.39 49.556-41.54 107.927 9.03 0 0 26.215 35.78 55.923 22.16 36.498-16.72 109.844 21.12 86.667 77.37-6.684 16.22-18.722 28.69-33.386 35.46a95.671 95.671 0 0 1-8.732 3.5c-9.15 3.15-16.216 11.3-18.508 21.83-7.463 34.25-35.711 100.38-140.548 33.84-7.905-5.02-17.291-5.66-25.464-1.86-10.046 4.67-20.949 22.75-69.411 15.12-31.128-4.91-41.018-41.14-49.237-57.62-6.545-13.13-15.945-18.69-21.312-20.91Z" style="fill-rule:nonzero"/><path d="M892.347 1466.9c-41.227 12.89-120.212-22.89-133.68-82.88-10.681-47.58-27.371-71.72-33.829-79.68-3.086-5.27-7.146-10.22-12.515-14.94-38.402-33.75-104.909-22.82-133.693-18.09-32.648 5.36-59.695 9.81-78.092 30.52-4.886 5.5-8.349 11.26-10.728 17.39l-.003-.02c-35.142 66.17-6.658 134.49 10.907 166.05 2.898 126.55-38.945 106.66-27.622 162.85 15.954 79.15 143.428 49.56 189.799 39.45 16.268-3.54 101.452 21.75 122.274-43.97 12.151-38.35-10.942-56.06-31.331-121.31 104.448 64.92 182.033-45.78 182.033-45.78l8.046-38.81s-21.073 19.68-51.566 29.22Z" style="fill:#fff;fill-rule:nonzero"/><path d="M892.347 1466.9h.022-.022Zm-400.696-146.42c-33.945 64.19-7.685 130.1 11.01 163.69.175.31.272.67.279 1.03 1.651 72.07-11.165 97.15-20.521 115.46-7.175 14.04-11.915 23.32-7.143 47 3.223 15.99 11.46 28.41 24.484 36.91 41.764 27.26 121.453 9.82 159.749 1.44l2.908-.63c3.78-.83 10.192-.29 19.07.45 32.053 2.67 85.692 7.15 101.555-42.92 7.686-24.26.785-40.04-10.646-66.18-6.051-13.84-13.582-31.05-20.687-53.79-.277-.89.027-1.86.762-2.43a2.229 2.229 0 0 1 2.539-.13c42.505 26.42 85.485 26.93 127.738 1.51 29.724-17.88 48.622-43.01 51.034-46.32l6.636-32.01c-8.042 6.41-25.164 18.51-47.406 25.46-21.387 6.69-53.119.67-80.845-15.33-29.308-16.92-49.601-42.13-55.673-69.19-10.534-46.92-26.857-70.71-33.386-78.76a2.237 2.237 0 0 1-.192-.28c-3.069-5.24-7.016-9.95-12.063-14.38-37.609-33.06-103.655-22.21-131.857-17.58-32.921 5.41-58.921 9.69-76.793 29.81-4.576 5.15-7.95 10.62-10.318 16.72-.061.16-.14.31-.234.45Zm71.848 383.21c-24.707.01-48.549-3.89-66.174-15.39-14.061-9.18-22.949-22.56-26.416-39.76-5.079-25.2.216-35.57 7.543-49.91 9.118-17.84 21.597-42.26 20.048-112.78-19.134-34.56-45.607-101.85-10.677-167.66 2.557-6.51 6.173-12.35 11.051-17.84 18.92-21.3 46.944-25.91 79.395-31.24 28.831-4.74 96.334-15.83 135.524 18.62 5.365 4.71 9.579 9.73 12.881 15.34 6.796 8.42 23.483 32.87 34.165 80.46 5.802 25.84 25.321 50.01 53.555 66.3 26.699 15.41 57.038 21.27 77.289 14.94 29.618-9.26 50.502-28.52 50.71-28.72a2.223 2.223 0 0 1 2.611-.31 2.22 2.22 0 0 1 1.089 2.39l-8.046 38.81c-.061.3-.183.58-.357.82-.197.29-20.043 28.29-52.523 47.87-29.206 17.61-74.668 31.76-127.413 1.57 6.493 19.78 13.223 35.17 18.722 47.75 11.443 26.16 19.003 43.45 10.812 69.3-16.936 53.46-74.985 48.62-106.171 46.02-7.846-.66-14.62-1.22-17.752-.54l-2.905.64c-23.069 5.04-60.933 13.32-96.961 13.32Z" style="fill-rule:nonzero"/><path d="M710.095 1456.55s75.21-27.41 98.692-77.54l48.413-45.11s-.685 21.81-15.06 30.91c0 0 12.339 24.85-5.869 42 0 0-13.657 10.86-21.797 11.06 0 0-23.842 78.31-88.211 101.63 0 0-18.077-27.48-16.168-62.95Z" style="fill:#fff;fill-rule:nonzero"/><path d="M712.252 1458.12c-1.111 29.02 11.418 52.6 14.957 58.65 61.325-23.44 84.902-98.79 85.135-99.55a2.222 2.222 0 0 1 2.075-1.58c6.065-.15 16.83-7.68 20.466-10.57 16.623-15.67 5.731-38.32 5.259-39.27a2.23 2.23 0 0 1 .804-2.87c8.782-5.56 12.082-16.48 13.311-23.25l-43.641 40.67c-22.293 46.96-87.646 73.66-98.366 77.77Zm14.012 63.6c-.733 0-1.44-.36-1.861-1-.755-1.15-18.458-28.5-16.532-64.29.047-.89.623-1.66 1.46-1.97.744-.27 74.625-27.69 97.439-76.39.121-.26.29-.49.499-.69l48.413-45.11a2.235 2.235 0 0 1 2.438-.4 2.23 2.23 0 0 1 1.306 2.1c-.029.91-.838 21.54-14.52 31.64 2.483 6.25 9.173 27.49-7.109 42.82-.679.55-12.903 10.2-21.664 11.52-3.686 10.85-29.282 79.97-89.111 101.64-.248.09-.505.13-.758.13ZM642.296 1544.38c-62.668 0-98.639-31.05-99.121-31.48a2.223 2.223 0 0 1-.189-3.14c.816-.92 2.222-1 3.143-.19.634.56 64.648 55.61 171.187 16.08a2.232 2.232 0 0 1 2.862 1.32 2.224 2.224 0 0 1-1.313 2.86c-28.628 10.62-54.29 14.55-76.569 14.55ZM680.765 1459.58c-54.597 0-86.386-31.09-103.799-58.5-20.475-32.24-25.927-66.5-25.979-66.84a2.226 2.226 0 0 1 1.862-2.54 2.219 2.219 0 0 1 2.54 1.86c.052.34 5.394 33.79 25.41 65.24 26.667 41.9 65.388 60.59 115.079 55.54a2.226 2.226 0 0 1 2.442 1.99 2.233 2.233 0 0 1-1.991 2.44c-5.382.55-10.571.81-15.564.81ZM723.109 1420.09c-.108 0-.216 0-.325-.02a2.23 2.23 0 0 1-1.882-2.53c9.823-67.13-20.899-105.12-21.211-105.5a2.223 2.223 0 0 1 .291-3.13 2.217 2.217 0 0 1 3.134.29c1.325 1.59 32.321 39.77 22.193 108.99a2.221 2.221 0 0 1-2.2 1.9Z" style="fill-rule:nonzero"/><path d="M709.231 1231.42c-2.088-13.98 1.258-51.09.646-50.19-5.988 8.79-25.705-1.61-43.461-2.31s-11.78 25.97-11.78 25.97-5.199-18.09-16.283-6.77c-6.431 6.58.66 15.06 7.264 20.61-1.814 2.07-33.802 36.54-53.389 57.04l43.452 32.98 21.754-20.32-4.434-7.07a16.92 16.92 0 0 1-.746-16.67l10.637-18.03c2.444 2.96 5.527 6.34 8.372 8.32 5.666 3.96 12.712 3.34 17.71-1.43 6.855-6.54 11.648-13.89 13.822-21.03l6.436-1.1Z" style="fill:#fff;fill-rule:nonzero"/><path d="m595.56 1275.5 39.972 30.34 19.038-17.78-3.456-5.51c-3.559-5.67-3.882-12.9-.844-18.87l10.702-18.15a2.249 2.249 0 0 1 1.742-1.09c.724-.06 1.429.25 1.892.8 3.088 3.73 5.756 6.4 7.933 7.92 4.781 3.33 10.627 2.86 14.896-1.22 6.565-6.27 11.139-13.21 13.229-20.07.246-.8.925-1.4 1.756-1.54l4.343-.74c-1.057-10.59.013-29.74.609-40.36.064-1.15.128-2.28.182-3.31-5.333 2.28-13.271.46-22.129-1.58-6.297-1.45-12.808-2.94-19.097-3.19-3.275-.13-5.729.79-7.424 2.83-4.314 5.17-2.975 16.5-2.095 20.42a2.23 2.23 0 0 1-1.62 2.65 2.23 2.23 0 0 1-2.693-1.54c-.583-2.01-3.007-7.94-6.375-8.78-1.747-.44-3.828.55-6.177 2.95-1.351 1.38-1.968 2.87-1.886 4.56.171 3.52 3.365 8.06 8.993 12.79.459.38.742.94.787 1.54.046.59-.152 1.18-.548 1.63-1.676 1.91-31.64 34.23-51.73 55.3Zm40.121 35.47a2.24 2.24 0 0 1-1.347-.45l-43.453-32.98a2.211 2.211 0 0 1-.874-1.59c-.051-.64.172-1.26.61-1.72 17.897-18.73 45.046-47.94 51.825-55.32-4.213-3.85-8.571-9.09-8.833-14.45-.144-2.95.917-5.61 3.151-7.89 3.54-3.62 7.054-5.02 10.456-4.16 1.64.41 3.045 1.32 4.234 2.45.076-4.73.979-10.07 4.033-13.73 2.603-3.13 6.296-4.62 11.021-4.43 6.704.26 13.725 1.88 19.919 3.3 10.018 2.3 18.675 4.29 21.615-.02a2.265 2.265 0 0 1 2.578-.87c1.75.59 1.75.59 1.203 10.37-.63 11.23-1.799 32.14-.385 41.61a2.231 2.231 0 0 1-1.829 2.53l-5.109.87c-2.468 7.15-7.28 14.27-13.985 20.67-5.78 5.52-14.027 6.18-20.523 1.65-1.98-1.39-4.247-3.51-6.761-6.33l-9.055 15.35c-2.263 4.45-2.016 10 .715 14.35l4.433 7.07c.567.9.414 2.08-.366 2.81l-21.753 20.31c-.427.4-.972.6-1.52.6Z" style="fill-rule:nonzero"/><path d="m659.494 1241.92 3.397 4.74-3.397-4.74Z" style="fill:#fff;fill-rule:nonzero"/><path d="M662.893 1248.89c-.694 0-1.378-.32-1.813-.93l-3.397-4.74a2.23 2.23 0 0 1 .513-3.11c.999-.71 2.39-.48 3.108.52l3.397 4.74c.717 1 .487 2.39-.513 3.1-.393.29-.846.42-1.295.42Z" style="fill-rule:nonzero"/><path d="M1037.29 1946.42c-.43 1.77 20.39 97.02 20.39 97.02l-47.85-8.01-14.407-80.53 41.867-8.48Z" style="fill:#fff;fill-rule:nonzero"/><path d="m1011.75 2033.49 43.05 7.21c-14.21-65.11-18.24-85.22-19.32-91.64l-37.481 7.59 13.751 76.84Zm45.93 12.18c-.12 0-.25-.01-.37-.03l-47.84-8.01c-.93-.16-1.66-.88-1.83-1.81l-14.41-80.53a2.223 2.223 0 0 1 1.75-2.57l41.87-8.48c.75-.16 1.52.08 2.04.63.44.45.66 1.05.63 1.66.32 3.95 12.31 59.7 20.33 96.44a2.222 2.222 0 0 1-2.17 2.7Z" style="fill-rule:nonzero"/><path d="M1032.27 2012.2c2.93-2.46 7.11-4.87 12.44-5.09 8.02-.35 15.33 4.67 18.65 12.05 8.29 18.44 30.17 69.81 36.35 111.79 2.19 14.84-9.01 26.9-26.45 17.18-28.59-15.93-68.26-52.51-89.019-106.53-2.383-6.21-1.533-13.22 2.381-18.57 3.197-4.37 7.533-9.66 12.567-14.17 4.811-4.32 12.051-4.38 17.041-.28l4.5 3.7a9.002 9.002 0 0 0 11.54-.08Z" style="fill:#fff;fill-rule:nonzero"/><path d="M1007.83 2007.77c-2.57 0-5.12.92-7.15 2.74-4.12 3.69-8.244 8.34-12.261 13.84-3.457 4.72-4.242 10.87-2.099 16.45 20.32 52.86 58.79 89.1 88.02 105.39 6.9 3.84 13.17 4.26 17.63 1.18 4.43-3.06 6.55-9.23 5.54-16.1-6.08-41.31-27.33-91.52-36.18-111.2-3.03-6.72-9.65-11.03-16.53-10.74-3.96.17-7.69 1.71-11.09 4.57-4.16 3.5-10.22 3.54-14.4.1l-4.5-3.7a10.97 10.97 0 0 0-6.98-2.53Zm77.21 146.11c-3.5 0-7.8-.98-12.87-3.8-29.91-16.67-69.27-53.72-90.009-107.68-2.687-7-1.692-14.73 2.664-20.68 4.199-5.75 8.533-10.63 12.879-14.52 5.636-5.06 14.026-5.2 19.936-.34l4.5 3.7c2.52 2.07 6.18 2.05 8.7-.07 4.12-3.46 8.88-5.4 13.77-5.61 8.64-.37 17.01 5 20.78 13.36 8.93 19.85 30.36 70.52 36.53 112.38 1.26 8.56-1.58 16.38-7.42 20.41-1.91 1.32-5.07 2.85-9.46 2.85Z" style="fill-rule:nonzero"/><path d="M1088.83 2137.15c-3.77 0-44.11-2.36-93.029-99.04a2.237 2.237 0 0 1 .981-3c1.1-.55 2.438-.11 2.993.99 49.025 96.9 88.705 96.6 89.125 96.59 1.29-.04 2.26.92 2.31 2.15.04 1.23-.92 2.26-2.15 2.3-.05.01-.13.01-.23.01ZM1058.21 2083.93c-.89 0-1.73-.54-2.07-1.42a2.22 2.22 0 0 1 1.25-2.88l22.68-8.95c1.15-.45 2.44.11 2.89 1.25.45 1.15-.11 2.44-1.25 2.89l-22.68 8.95c-.27.11-.55.16-.82.16ZM1050.26 2066.55c-.89 0-1.73-.54-2.07-1.42-.45-1.15.12-2.44 1.26-2.88l26.61-10.35a2.225 2.225 0 1 1 1.61 4.15l-26.6 10.35c-.26.1-.54.15-.81.15Z" style="fill-rule:nonzero"/><path d="M831.415 1955.07c-1.134 1.43-22.282 96.6-22.282 96.6l-40.046-27.37 20.771-79.13 41.557 9.9Z" style="fill:#fff;fill-rule:nonzero"/><path d="m771.64 2023.34 36.033 24.64c14.466-65.05 19.269-85 20.983-91.28l-37.196-8.86-19.82 75.5Zm37.493 30.56c-.442 0-.88-.13-1.257-.39l-40.046-27.38a2.222 2.222 0 0 1-.897-2.4l20.771-79.13a2.229 2.229 0 0 1 2.671-1.6l41.556 9.9c.74.18 1.339.72 1.588 1.44.203.59.15 1.22-.132 1.76-1.368 3.73-13.923 59.35-22.08 96.06-.16.72-.667 1.31-1.356 1.59-.264.1-.541.15-.818.15Z" style="fill-rule:nonzero"/><path d="M799.212 2012.65c3.69-1.01 8.496-1.43 13.424.6 7.42 3.06 11.945 10.69 11.856 18.78-.221 20.22-1.963 76.02-13.999 116.72-4.254 14.38-19.484 20.62-31.227 4.47-19.246-26.48-39.861-76.34-35.994-134.09.444-6.63 4.165-12.63 9.964-15.84 4.738-2.62 10.898-5.61 17.362-7.58 6.179-1.89 12.773 1.09 15.576 6.91l2.525 5.25c1.896 3.93 6.298 5.92 10.513 4.78Z" style="fill:#fff;fill-rule:nonzero"/><path d="M774.401 1997.36c-1.043 0-2.105.16-3.152.48-5.289 1.62-10.986 4.1-16.934 7.4-5.125 2.83-8.422 8.08-8.821 14.04-3.783 56.5 15.895 105.56 35.573 132.63 4.644 6.38 10.143 9.4 15.5 8.48 5.304-.92 9.821-5.62 11.79-12.28 11.842-40.03 13.671-94.53 13.909-116.11.08-7.36-4.131-14.07-10.478-16.69-3.666-1.51-7.701-1.68-11.991-.52-5.246 1.43-10.754-1.08-13.104-5.96l-2.525-5.24c-1.878-3.9-5.7-6.23-9.767-6.23ZM794.684 2165c-4.424 0-10.946-1.84-17.22-10.47-20.136-27.7-40.277-77.86-36.413-135.55.5-7.47 4.652-14.07 11.107-17.64 6.218-3.44 12.203-6.05 17.788-7.76 7.241-2.22 14.911 1.18 18.235 8.08l2.525 5.24c1.418 2.95 4.748 4.46 7.923 3.6 5.193-1.41 10.329-1.17 14.855.69 8.017 3.31 13.336 11.69 13.236 20.86-.24 21.76-2.091 76.75-14.092 117.33-2.454 8.29-8.318 14.19-15.305 15.4-.756.13-1.644.22-2.639.22Z" style="fill-rule:nonzero"/><path d="M799.083 2150.06c-.288 0-.58-.05-.862-.17-1.596-.67-39.137-17.72-42.993-129.06a2.237 2.237 0 0 1 2.148-2.31c1.203-.03 2.259.92 2.304 2.15 3.757 108.52 39.903 124.96 40.268 125.11a2.234 2.234 0 0 1 1.19 2.92 2.228 2.228 0 0 1-2.055 1.36ZM817.878 2090.25h-.132l-24.341-1.42a2.224 2.224 0 0 1-2.095-2.35 2.212 2.212 0 0 1 2.354-2.09l24.341 1.41a2.223 2.223 0 0 1 2.094 2.35 2.224 2.224 0 0 1-2.221 2.1ZM822.118 2071.52h-.142l-28.489-1.79a2.232 2.232 0 0 1-2.083-2.36 2.246 2.246 0 0 1 2.362-2.09l28.488 1.79a2.231 2.231 0 0 1 2.084 2.36 2.23 2.23 0 0 1-2.22 2.09Z" style="fill-rule:nonzero"/><path d="M607.631 1579.92s291.34-12.64 323.189 16.94c43.203 40.12 117.42 374.1 117.42 374.1l-71.659 20.09s-107.975-274.09-134.727-274.09c-26.754 0-278.997-9.01-278.997-9.01l44.774-128.03Z" style="fill:#059669;fill-rule:nonzero"/><path d="M588.372 1572.63c-23.03-1.17-43.605 14.21-49.025 36.62-8.395 34.72-15.665 82.2 3.126 94.85 30.575 20.57 250.976 18.82 243.332 16.25-7.643-2.57-19.71 184.7-19.71 256.71l69.394 2.67s110.588-289.61 98.667-321.94c-21.326-57.86-185.489-71.11-238.018-78.85-7.056-1.04-66.966-4.22-107.766-6.31Z" style="fill:#059669;fill-rule:nonzero"/><path d="M897.51 1817.13c-.226 0-.454-.03-.68-.1a2.228 2.228 0 0 1-1.441-2.8c2.495-7.79 4.975-15.46 7.403-22.96 19.42-60.01 36.192-111.83 29.25-132.78-14.744-44.5-124.99-61.55-161.217-67.16a2.22 2.22 0 0 1-1.861-2.54 2.233 2.233 0 0 1 2.542-1.86c64.034 9.91 150.781 27.96 164.764 70.15 7.401 22.34-8.768 72.31-29.24 135.56-2.427 7.5-4.906 15.16-7.401 22.95a2.225 2.225 0 0 1-2.119 1.54ZM1535.67 1727.07l33.82 346.3 24.14-1.01-11.99-364.06-45.97 18.77Z" style="fill:#fff;fill-rule:nonzero"/><path d="m1538.05 1728.5 33.45 342.55 19.83-.83-11.81-358.65-41.47 16.93Zm31.44 347.1c-1.14 0-2.1-.87-2.21-2.02l-33.82-346.29c-.1-.99.46-1.91 1.37-2.28l45.97-18.77c.67-.27 1.44-.2 2.05.19.61.4.99 1.07 1.01 1.8l11.99 364.05c.04 1.22-.91 2.25-2.13 2.3l-24.13 1.01c-.04 0-.07.01-.1.01Z" style="fill-rule:nonzero"/><path d="m1989.31 1714.61-33 359.62-24.95-1.87 11.99-377.19 45.96 19.44Z" style="fill:#fff;fill-rule:nonzero"/><path d="m1933.65 2070.29 20.64 1.55 32.66-355.81-41.48-17.55-11.82 371.81Zm22.66 6.17c-.06 0-.11 0-.17-.01l-24.95-1.87c-1.19-.09-2.1-1.1-2.06-2.3l11.99-377.18c.03-.74.41-1.41 1.03-1.81.61-.4 1.39-.46 2.07-.17l45.96 19.44c.89.38 1.44 1.29 1.35 2.25l-33 359.62a2.235 2.235 0 0 1-2.22 2.03Z" style="fill-rule:nonzero"/><path d="m2104.2 1629.99-9.71 377.62-19.49-4.22-17.86-391.36 47.06 17.96Z" style="fill:#fff;fill-rule:nonzero"/><path d="m2077.15 2001.58 15.18 3.29 9.6-373.37-42.41-16.18 17.63 386.26Zm17.34 8.26c-.16 0-.32-.02-.47-.05l-19.49-4.22c-.98-.22-1.7-1.07-1.75-2.08l-17.87-391.36c-.03-.75.32-1.46.92-1.9.61-.44 1.4-.55 2.1-.28l47.06 17.96c.88.33 1.46 1.19 1.43 2.13l-9.71 377.63c-.01.66-.32 1.29-.85 1.7-.39.31-.88.47-1.37.47Z" style="fill-rule:nonzero"/><path d="m1723.5 1621.54-9.71 377.63-20.24.11-17.11-395.69 47.06 17.95Z" style="fill:#fff;fill-rule:nonzero"/><path d="m1678.81 1606.88 16.87 390.16 15.94-.09 9.61-373.89-42.42-16.18Zm14.74 394.63a2.24 2.24 0 0 1-2.23-2.13l-17.1-395.7c-.04-.75.31-1.46.92-1.9.61-.44 1.4-.54 2.09-.28l47.06 17.96a2.23 2.23 0 0 1 1.44 2.14l-9.71 377.63a2.231 2.231 0 0 1-2.22 2.17l-20.24.11h-.01Z" style="fill-rule:nonzero"/><path d="M1821.32 1326.62v87.87c0 85.93-67.78 155.59-151.38 155.59-83.61 0-151.38 69.66-151.38 155.6 0 7.65 6.19 13.86 13.83 13.86h400.72c125.33 0 226.93-104.43 226.93-233.26V1318.8c0-51.24-40.41-92.78-90.26-92.78h-150.6c-54.05 0-97.86 45.04-97.86 100.6Z" style="fill:#fff;fill-rule:nonzero"/><path d="M1919.18 1228.25c-52.73 0-95.64 44.13-95.64 98.37v87.86c0 87.03-68.91 157.83-153.6 157.83-82.25 0-149.16 68.8-149.16 153.37 0 6.41 5.21 11.63 11.61 11.63h400.72c123.9 0 224.71-103.64 224.71-231.03V1318.8c0-49.93-39.49-90.55-88.04-90.55h-150.6Zm13.93 513.52h-400.72c-8.85 0-16.06-7.22-16.06-16.09 0-87.03 68.91-157.83 153.6-157.83 82.25 0 149.16-68.8 149.16-153.37v-87.86c0-56.7 44.9-102.82 100.09-102.82h150.6c51 0 92.49 42.62 92.49 95v187.48c0 129.85-102.8 235.49-229.16 235.49Z" style="fill-rule:nonzero"/><path d="M1792.71 1330.76s-21.84 198.56-168.51 211.55l168.51 2.4s62.4-126.58 64.93-175.87c2.54-49.29-64.93-38.08-64.93-38.08Z" style="fill:#fff;fill-rule:nonzero"/><path d="m1648.76 1540.44 142.57 2.02c6.5-13.34 61.74-128.08 64.09-173.73.57-11.15-2.61-19.9-9.45-26.01-15.17-13.55-44.1-10.9-51.26-9.99-1.23 9.25-8.03 54.19-29.23 99.87-27.16 58.52-67.2 95.36-116.72 107.84Zm143.95 6.5h-.03l-168.51-2.4a2.236 2.236 0 0 1-2.2-2.14c-.04-1.19.85-2.2 2.03-2.3 74.67-6.62 115.93-63.08 137.39-109.27 23.39-50.36 29.05-99.82 29.11-100.32.11-.99.86-1.79 1.85-1.95 1.53-.25 37.7-6.03 56.59 10.84 7.9 7.05 11.57 16.99 10.93 29.56-2.53 49.18-62.6 171.55-65.16 176.74-.38.76-1.15 1.24-2 1.24Z" style="fill-rule:nonzero"/><path d="M2001.46 1204.56c-28.45-6.69-40.32-6.78-143.75-3.03-25.28.91-55.35 32.68-58.32 57.83 8.03 24.12 45.11 143.22-19.62 236.28-9.18 13.2-21.67 27.69-38.81 41.57 9.63 7.8 24.59 17.95 44.69 23.92 33.37 9.92 50.15-.8 77.04 0 71.14 2.12 97.22 81.44 143.17 71.48 12.27-2.66 28.53-12.24 43.77-44.38 8.64-26.64 16.33-57.93 20.61-93.3 11.61-95.86-7.38-175.68-24.35-225.76-5.03-15.82-10.88-56.71-44.43-64.61Z" style="fill:#047857;fill-rule:nonzero"/><path d="M1773.44 1353.01s16.72-134.27 64.93-145.73l-11.07 176.62-53.86-30.89Z" style="fill:#047857;fill-rule:nonzero"/><path d="M2018.42 1317.17c22.02 9.33 47.88 20.32 70.65 30.11.01.29.01.57.02.85l-70.65-30.49-.02-.47Z" style="fill:#fff;fill-rule:nonzero"/><path d="M2089.09 1350.36c-.3 0-.6-.06-.88-.18l-70.65-30.49a2.23 2.23 0 0 1-1.34-1.94l-.02-.47a2.223 2.223 0 0 1 3.09-2.16c26.9 11.39 51.33 21.81 70.66 30.12.8.34 1.33 1.12 1.35 1.98l.02.87a2.242 2.242 0 0 1-2.23 2.27Z" style="fill-rule:nonzero"/><path d="M2101.43 1377.62s-4.72-79.76-11.6-110.58c-14.48-64.83-98.41-65.51-98.41-65.51l14.66 165 95.35 11.09Z" style="fill:#047857;fill-rule:nonzero"/><path d="m1919.16 1190.53-2.84-40.34c-1.93-.14-3.26-.22-3.65-.22-11.25-.13-14.9-3.78-15.86-13.02-.61-5.78-.82-14.37 1.99-25.12.3-1.14.24-2.36-.23-3.45l-1.92-4.51c-.4-1.48.11-3.07 1.3-4.04l1.02-.84c3.67-3.01 6.72-6.71 9.16-10.82 2.25-3.78 6.07-10.86 8.69-12.12 7.39-3.53 37.36-19.22 54.11 8.2 13.06 21.38-8.28 50.82-16.04 60.46-1.87 2.34 12.67 48.05 12.67 48.05l18.79 4.54s-14.5 25.79-58.55 15.12c-31.37-7.59-26.39-19.27-26.39-19.27l17.75-2.62Z" style="fill:#fff;fill-rule:nonzero"/><path d="M1903.35 1195.11c.02.66.2 1.59.79 2.69 1.52 2.84 6.69 8.23 24.18 12.46 33.63 8.14 49.32-5.67 54.27-11.57l-15.56-3.77c-.75-.18-1.36-.75-1.6-1.49-14.9-46.85-13.12-49.05-12.27-50.11 8.75-10.89 27.83-38.33 15.87-57.91-15.15-24.81-41.71-11.96-50.44-7.74l-.8.39c-1.65.79-5.07 6.67-6.72 9.5l-1.03 1.75c-2.68 4.5-5.93 8.34-9.66 11.4l-1.02.84c-.47.39-.7 1.03-.59 1.62l1.85 4.33c.65 1.52.77 3.26.34 4.9-2.16 8.22-2.79 16.18-1.94 24.31.79 7.53 2.95 10.9 13.67 11.03.41 0 1.79.09 3.78.22 1.11.08 1.99.96 2.07 2.07l2.84 40.34c.08 1.16-.74 2.19-1.9 2.36l-16.13 2.38Zm44.76 22.16c-6.1 0-13.02-.79-20.84-2.68-14.88-3.6-24.03-8.65-27.22-14.99-2-4-.83-7-.69-7.33.31-.71.96-1.21 1.73-1.33l15.7-2.32-2.56-36.34c-.81-.05-1.36-.08-1.59-.09-12.03-.14-16.92-4.21-18.05-15.01-.91-8.68-.23-17.16 2.06-25.91.18-.69.13-1.41-.13-2.02l-1.92-4.51c-.04-.09-.07-.19-.1-.29-.63-2.32.17-4.81 2.03-6.34l1.03-.84c3.33-2.74 6.24-6.18 8.66-10.24l1-1.71c3.27-5.61 5.98-10 8.64-11.28l.79-.38c25.83-12.49 44.73-9.32 56.18 9.43 13.29 21.75-6.41 50.75-15.89 62.63-.01 3.85 6.11 25.44 12.36 45.17l17.58 4.25a2.225 2.225 0 0 1 1.41 3.25c-.52.93-11.02 18.88-40.18 18.88Z" style="fill-rule:nonzero"/><path d="M1961.7 1049.38c-8.13-1.75-17.46-.5-21.4-1.96-6.36-2.34-6.54-9.96-15.33-12.1-10.65-2.59-15.09 1.96-19.26 8.3-.69 1.06-1.3 2.24-1.8 3.58-6.69 17.97 1.76 26.74 5.52 29.59 0 0 23.95 12.39 28.06 15.93 3.83 3.31 8.26 11.15 5.47 22.42-.36 1.45.28 2.96 1.51 3.71 1.44.86 3.3.45 4.29-.98 3.11-4.53 9.92-13.27 14.76-11.2 6.08 2.6 4.19 20.86-9.23 22.96-4.12.65-7.47 4.87-7.07 9.19.27 2.82 2.92 6.24 6.87 7.14 2.41.56 4.78-.42 6.9-1.77 8.76-5.6 33.46-29.33 36.53-50.61 3.69-25.64-25.02-41.87-35.82-44.2ZM1913.29 1152.01c-1.19 0-2.18-.94-2.22-2.14-.05-1.23.91-2.27 2.14-2.32.08 0 8.67-.4 14.52-5.38a2.231 2.231 0 0 1 2.89 3.4c-7.06 5.99-16.83 6.42-17.25 6.44h-.08Z" style="fill-rule:nonzero"/><path d="M1721.21 1961.46c-4.1-4.16-27.79-77.92-27.79-77.92l-46.8 33.43 51.31 69.04 23.28-24.55Z" style="fill:#fff;fill-rule:nonzero"/><path d="m1649.76 1917.46 48.38 65.1 20.29-21.41c-5.55-10.6-21.12-58.3-26.19-74.03l-42.48 30.34Zm48.17 70.78h-.13a2.21 2.21 0 0 1-1.65-.9l-51.32-69.04a2.224 2.224 0 0 1 .5-3.14l46.8-33.43a2.23 2.23 0 0 1 2-.31c.67.23 1.2.76 1.41 1.44 8.99 27.97 24.33 73.63 27.27 77.05.75.87.8 2.25.02 3.08l-23.28 24.55c-.42.45-1.01.7-1.62.7Z" style="fill-rule:nonzero"/><path d="m1636.87 2054.73 31.12-.19c20.59-.12 39.75-10.6 50.98-27.88l30.77-48.78c8.51-13.48 3.75-31.34-10.31-38.83-12.85-6.83-26.31-13.49-29.46-13.19-6.4.61-8.99 30.94-8.99 30.94l-27.73 1.07s-13.7 57.03-25.75 63.51c-8.78 4.72-14.91 11.66-19.04 17.99-4.32 6.63.5 15.4 8.41 15.36Z" style="fill-rule:nonzero"/><path d="M1639.99 2044.79c-1.08 0-2.03-.8-2.2-1.9-.18-1.22.66-2.35 1.88-2.53l42.57-6.42c8.92-1.35 16.7-6.57 21.34-14.32l37.61-62.92c.64-1.06 2-1.4 3.06-.77 1.05.63 1.4 2 .77 3.05l-37.62 62.93a34.463 34.463 0 0 1-24.5 16.43l-42.57 6.42c-.11.02-.22.03-.34.03Z" style="fill:#fff;fill-rule:nonzero"/><path d="M1692.55 1997.47c-.2 0-.39-.03-.59-.08l-23.72-6.47a2.222 2.222 0 0 1-1.56-2.73 2.224 2.224 0 0 1 2.73-1.57l23.72 6.47a2.22 2.22 0 0 1 1.56 2.74c-.27.99-1.16 1.64-2.14 1.64ZM1680.19 2009.66c-.17 0-.35-.02-.53-.06l-15.9-3.9a2.209 2.209 0 0 1-1.63-2.69 2.22 2.22 0 0 1 2.69-1.63l15.9 3.89c1.2.3 1.93 1.5 1.64 2.69a2.23 2.23 0 0 1-2.17 1.7ZM1561.51 1947.38l-54.34 54.66-28.8-10.59 50.09-69.93 33.05 25.86Z" style="fill:#fff;fill-rule:nonzero"/><path d="m1481.88 1990.37 24.72 9.09 51.56-51.87-29.24-22.88-47.04 65.66Zm25.29 13.9c-.25 0-.51-.05-.77-.14l-28.8-10.59c-.66-.24-1.16-.77-1.36-1.44-.21-.66-.09-1.38.32-1.95l50.09-69.93c.35-.49.89-.82 1.49-.9.6-.09 1.21.07 1.69.45l33.05 25.86a2.227 2.227 0 0 1 .21 3.32l-54.34 54.66c-.42.43-1 .66-1.58.66Z" style="fill-rule:nonzero"/><path d="M1849.14 1543.86s-248.34-30.47-322.19 36.92c-73.84 67.39 116.57 357.19 116.57 357.19l60.22-47.08-57.12-204.83 229.57-68.73-27.05-73.47Z" style="fill:#fff;fill-rule:nonzero"/><path d="M1726.7 1539.34c-73.54 0-160.09 8.26-198.24 43.08-68.42 62.44 98.89 326.36 115.61 352.3l57.13-44.66-56.72-203.4a2.22 2.22 0 0 1 1.5-2.73l227.3-68.05-25.76-69.96c-8.92-1.02-60.5-6.58-120.82-6.58Zm-83.18 400.86a2.224 2.224 0 0 1-1.86-1c-7.82-11.9-190.6-292.17-116.21-360.07 73.76-67.3 313.78-38.73 323.96-37.48.83.1 1.53.66 1.82 1.44l27.05 73.47c.21.58.17 1.22-.1 1.77-.28.55-.77.96-1.36 1.13l-227.47 68.11 56.54 202.72c.24.87-.07 1.8-.78 2.36l-60.21 47.08c-.4.31-.88.47-1.38.47Z" style="fill-rule:nonzero"/><path d="M1985.81 1677.25c-36.07 12.07-100.62 27.67-190.83 26.38-25.63-.37-49.3 14.56-60.94 38.63-26.72 55.25-84.56 154.72-178.77 219.2l-44.99-25.56 114.84-272.54c10.48-24.88 30.09-44.22 54.34-53.59l227.6-87.99s70.57-20.8 105.17 45.62c6.18 11.86 17.65-9.34 20.39.23 9.37 32.81-15.83 99.25-46.81 109.62Z" style="fill:#fff;fill-rule:nonzero"/><path d="m1513.1 1934.94 42.06 23.89c93.51-64.48 150.92-163.89 176.87-217.54 11.91-24.61 36.62-40.25 62.98-39.89 88.45 1.28 152.2-13.58 190.1-26.26 29.9-10.01 54.23-75.84 45.37-106.9-.23-.8-.45-.99-.45-1-.62-.07-2.77 1.44-4.07 2.32-3.16 2.12-6.75 4.52-10.47 3.57-2.13-.54-3.89-2.12-5.23-4.7-33.33-63.97-99.76-45.34-102.57-44.51l-227.43 87.92c-23.55 9.11-42.9 28.2-53.09 52.39l-114.07 270.71Zm42.17 28.74c-.38 0-.76-.09-1.1-.29l-44.99-25.56a2.222 2.222 0 0 1-.95-2.8l114.84-272.53c10.65-25.3 30.92-45.28 55.59-54.81l227.6-87.99c.89-.27 72.91-20.59 107.95 46.67.73 1.41 1.53 2.23 2.38 2.45 1.8.46 4.5-1.36 6.89-2.96 2.85-1.91 5.54-3.72 8.15-2.76 1.49.55 2.54 1.86 3.13 3.92 9.53 33.36-15.88 101.51-48.24 112.34l-.71-2.11.71 2.11c-38.23 12.79-102.5 27.78-191.57 26.49-.31 0-.62-.01-.92-.01-24.64 0-46.8 14.26-57.99 37.39-26.25 54.27-84.47 155.02-179.51 220.06-.38.26-.82.39-1.26.39ZM1524.34 1993.49s2.63 23.25-1.83 43.8c-2.37 10.95-12.23 18.65-23.42 18.65h-133.36c-9.53 0-13.86-11.91-6.55-18.04 23.71-19.89 67.33-50.26 120.97-59.17l14.95 20.96 29.24-6.2Z" style="fill-rule:nonzero"/><path d="M1510.28 2039.81h-138.21c-1.23 0-2.23-.99-2.23-2.22 0-1.23 1-2.23 2.23-2.23h138.21c1.23 0 2.22 1 2.22 2.23s-.99 2.22-2.22 2.22ZM1449.19 2015.23c-.88 0-1.71-.52-2.06-1.38l-7.32-17.76c-.47-1.14.07-2.44 1.21-2.91 1.14-.47 2.44.07 2.91 1.21l7.32 17.77c.46 1.13-.08 2.44-1.21 2.9-.28.12-.57.17-.85.17ZM1425.13 2019.91c-.93 0-1.8-.6-2.11-1.53l-5.3-16.03c-.38-1.17.25-2.43 1.42-2.81 1.17-.39 2.43.24 2.82 1.41l5.29 16.03c.38 1.17-.25 2.43-1.42 2.81-.23.08-.46.12-.7.12ZM2030.8 1362.17c-24.21 88.22-96.15 144.51-200.46 174.14l15.91 29.73c144.96-5.1 220.98-68.1 251.37-189.01l-66.82-14.86Z" style="fill:#fff;fill-rule:nonzero"/><path d="m1833.61 1537.69 13.95 26.08c137.49-5.21 216.15-64.06 247.34-185.06l-62.52-13.91c-23.69 83.37-90.54 141.52-198.77 172.89Zm12.64 30.58c-.82 0-1.57-.45-1.96-1.18l-15.91-29.73a2.23 2.23 0 0 1-.09-1.92c.27-.62.8-1.09 1.44-1.27 109.08-30.99 176-89.06 198.92-172.59a2.237 2.237 0 0 1 2.64-1.59l66.82 14.87c.58.13 1.09.49 1.41 1 .31.52.41 1.13.26 1.72-31.45 125.12-111.98 185.71-253.45 190.69h-.08Z" style="fill-rule:nonzero"/><path d="M1855.1 1533.87c-1.47-2.89-3.95-5.18-7-6.27-2.18-.78-4.33-1.82-6.38-2.91l-28.39-15.06c-5.32-2.61-12.92 3.46-18.44 5.28-16.65 5.47-51.14 18.36-48.3 30.46 3.06 13.06 32.7 6.88 43.23 4.25 2.4-.6 24.18 7.28 31.06 7.81 9.52.72 11.71-1.7 16.37-4.15 2.12-1.11 4.48-1.61 7.04-1.63 3.92-.03 7.65-1.67 10.11-4.73l.05-.08c2.71-3.37 3.18-8.03 1.21-11.88l-.56-1.09Z" style="fill:#fff;fill-rule:nonzero"/><path d="M1790.15 1547.36c1.76 0 5.04.9 13.43 3.39 6.63 1.97 14.14 4.2 17.47 4.46 7.32.55 9.72-.82 13.03-2.71.67-.39 1.37-.79 2.13-1.19 2.35-1.23 5.06-1.87 8.07-1.89 3.36-.02 6.41-1.44 8.38-3.9 2.21-2.76 2.59-6.48 1.02-9.55l-.56-1.09c-1.26-2.46-3.31-4.3-5.77-5.18-2-.72-4.12-1.69-6.68-3.04l-28.38-15.06c-2.67-1.31-7.1.91-11 2.88-2.01 1-3.89 1.95-5.7 2.54-30.56 10.04-48.51 20.71-46.83 27.84.39 1.67 1.37 2.96 3 3.96 5.86 3.56 19.88 3.05 37.52-1.36.25-.06.53-.1.87-.1Zm33.85 12.42c-1.01 0-2.09-.04-3.28-.13-3.81-.29-11.23-2.5-18.41-4.63-4.86-1.44-10.93-3.28-12.16-3.21-10.99 2.77-31.19 6.61-40.7.81-2.67-1.63-4.36-3.89-5.03-6.74-3.01-12.84 25.41-25.08 49.78-33.09 1.49-.49 3.24-1.37 5.09-2.29 4.83-2.43 10.3-5.18 15.02-2.87l28.45 15.09c2.36 1.25 4.3 2.14 6.09 2.78 3.54 1.27 6.46 3.88 8.23 7.35l.56 1.1c2.37 4.62 1.8 10.23-1.45 14.29-2.86 3.58-7.18 5.61-11.88 5.64-2.32.01-4.29.46-6.03 1.37-.71.38-1.36.75-1.99 1.11-3.06 1.75-5.97 3.42-12.29 3.42Z" style="fill-rule:nonzero"/><path d="M794.884 1573.68H1910.16c20.77 0 36.92 13.67 34.57 29.27l-77.01 510.93h-55.61l48.21-479.52c.85-8.45-8-15.66-19.21-15.66H883.746c-16.78 0-30.013 10.78-28.742 23.43l47.729 474.75h-55.608l-78.326-521.12c-1.768-11.77 10.413-22.08 26.085-22.08Z" style="fill:#fff;fill-rule:nonzero"/><path d="M849.043 2114.65h51.228l-47.483-472.3c-.558-5.55 1.392-11.11 5.49-15.64 5.8-6.41 15.321-10.24 25.467-10.24h957.365c6.98 0 13.55 2.65 17.56 7.09 2.89 3.18 4.26 7.1 3.86 11.02l-47.96 477.07h51.23l76.73-509.03c.83-5.48-.86-10.84-4.86-15.5-6.04-7.02-16.33-11.21-27.51-11.21H794.885c-8.28 0-15.883 3.09-20.338 8.26-2.916 3.39-4.143 7.28-3.546 11.25l78.042 519.23Zm53.69 4.45h-55.608a2.22 2.22 0 0 1-2.202-1.89l-78.326-521.12c-.784-5.22.841-10.49 4.575-14.82 5.289-6.15 14.154-9.81 23.713-9.81H1910.16c12.46 0 24.01 4.76 30.88 12.75 4.81 5.59 6.9 12.37 5.89 19.07l-77.01 510.93a2.226 2.226 0 0 1-2.2 1.89h-55.61c-.63 0-1.23-.26-1.65-.73a2.22 2.22 0 0 1-.57-1.72l48.21-479.52c.34-3.4-1.3-6-2.73-7.58-3.18-3.52-8.52-5.62-14.26-5.62H883.745c-8.909 0-17.194 3.28-22.164 8.77-3.29 3.64-4.798 7.86-4.361 12.2l47.729 474.75a2.23 2.23 0 0 1-.564 1.72c-.422.47-1.022.73-1.652.73Z" style="fill-rule:nonzero"/><path d="m1720.59 1557.33-59.94-176.63c-3.59-5.53-9.85-8.89-16.58-8.89h-159.75c-7.25 0-11.92 7.04-9.55 13.26.94 2.47 1.95 4.91 2.78 7.43l54.17 165.15h.02c.17 9.66 8.03 17.43 17.71 17.43h294.81c9.79 0 17.73-7.95 17.73-17.75h-141.4Z" style="fill:#fff;fill-rule:nonzero"/><path d="M1533.75 1556.7c.13.28.21.59.21.91.15 8.41 7.1 15.25 15.49 15.25h294.81c7.79 0 14.26-5.79 15.35-13.3h-139.02c-.95 0-1.8-.61-2.11-1.51l-59.84-176.36c-3.22-4.8-8.65-7.65-14.57-7.65h-159.75c-2.7 0-5.1 1.23-6.59 3.39-1.4 2.04-1.73 4.6-.88 6.84l.8 2.08c.69 1.76 1.41 3.59 2.02 5.45l54.08 164.9Zm310.51 20.61h-294.81c-10.66 0-19.52-8.58-19.93-19.2l-54.09-164.92c-.57-1.75-1.26-3.51-1.93-5.22l-.81-2.11c-1.38-3.62-.86-7.71 1.37-10.96 2.34-3.38 6.07-5.32 10.26-5.32h159.75c7.53 0 14.43 3.71 18.45 9.91.1.15.18.32.24.5l59.43 175.11h139.8c1.23 0 2.23 1 2.23 2.23 0 11.02-8.96 19.98-19.96 19.98Z" style="fill-rule:nonzero"/><path d="M1601.85 1462.34c2.25 7.48-1.19 15.14-7.69 17.1-6.5 1.96-13.59-2.51-15.84-9.99s1.19-15.14 7.69-17.1c6.49-1.96 13.59 2.51 15.84 9.99Z" style="fill-rule:nonzero"/><path d="M1068.67 1577.62H773.887c-8.053 0-14.58-6.53-14.58-14.58v-2.81h323.943v2.81c0 8.05-6.52 14.58-14.58 14.58Z" style="fill:#fff;fill-rule:nonzero"/><path d="M761.534 1562.45v.59c0 6.81 5.542 12.35 12.353 12.35h294.783c6.81 0 12.36-5.54 12.36-12.35v-.59H761.534Zm307.136 17.4H773.887c-9.267 0-16.807-7.54-16.807-16.81v-2.81c0-1.23.997-2.23 2.227-2.23h323.943c1.23 0 2.23 1 2.23 2.23v2.81c0 9.27-7.54 16.81-16.81 16.81Z" style="fill-rule:nonzero"/><path d="M1083.26 1560.54H897.896l58.894-173.36c3.524-5.42 9.664-8.71 16.264-8.71h156.696c7.11 0 11.69 6.9 9.37 12.99-.93 2.42-1.92 4.81-2.73 7.27l-53.13 161.81Z" style="fill:#fff;fill-rule:nonzero"/><path d="M901.005 1558.31h180.645l52.62-160.27c.6-1.82 1.3-3.61 1.98-5.34l.78-2.04c.84-2.18.52-4.67-.85-6.65-1.45-2.11-3.79-3.32-6.43-3.32H973.054c-5.79 0-11.095 2.79-14.248 7.48l-57.801 170.14Zm182.255 4.46H897.896c-.717 0-1.392-.35-1.81-.93a2.241 2.241 0 0 1-.298-2.02l58.894-173.36c.059-.17.14-.34.241-.49 3.957-6.09 10.735-9.73 18.131-9.73h156.696c4.12 0 7.8 1.91 10.1 5.24 2.2 3.19 2.7 7.22 1.35 10.77l-.81 2.07c-.65 1.67-1.32 3.4-1.88 5.11l-53.14 161.81c-.29.91-1.15 1.53-2.11 1.53Z" style="fill-rule:nonzero"/><path d="M1014.47 1467.16c-2.21 7.33 1.17 14.83 7.54 16.76 6.37 1.92 13.33-2.46 15.54-9.79 2.21-7.33-1.17-14.83-7.54-16.76-6.38-1.92-13.33 2.46-15.54 9.79Z" style="fill-rule:nonzero"/><path d="M2101.51 2125.15h-303.54c-18.22 0-31.85-16.73-28.18-34.57l46.05-223.86c3.87-18.83 20.45-32.34 39.66-32.34h260.37l-14.36 290.77Z" style="fill:#fff;fill-rule:nonzero"/><path d="M1855.5 1836.61c-18.07 0-33.84 12.85-37.48 30.55l-46.05 223.86c-1.61 7.85.36 15.92 5.43 22.13a26.432 26.432 0 0 0 20.57 9.77h301.42l14.14-286.31H1855.5Zm246.01 290.76h-303.54c-9.35 0-18.11-4.16-24.03-11.41a30.863 30.863 0 0 1-6.33-25.83l46.05-223.86c4.07-19.77 21.66-34.12 41.84-34.12h260.37c.61 0 1.19.25 1.61.69.42.45.64 1.04.61 1.65l-14.35 290.76a2.23 2.23 0 0 1-2.23 2.12Z" style="fill-rule:nonzero"/><path d="M2140.37 2125.15h-58.9c-18.22 0-31.86-16.73-28.18-34.57l50.72-246.57c1.15-5.61 6.09-9.63 11.81-9.63h15.15c6.28 0 11.51 4.82 12.02 11.08l20.75 254.34c1.11 13.65-9.67 25.35-23.37 25.35Z" style="fill:#fff;fill-rule:nonzero"/><path d="M2115.82 1836.61c-4.64 0-8.69 3.3-9.63 7.85l-50.72 246.56c-1.62 7.85.36 15.92 5.42 22.13a26.467 26.467 0 0 0 20.58 9.77h58.9c6 0 11.54-2.43 15.6-6.84 4.06-4.41 6.03-10.12 5.55-16.1l-20.75-254.34c-.42-5.06-4.72-9.03-9.8-9.03h-15.15Zm24.55 290.76h-58.9c-9.36 0-18.12-4.16-24.03-11.41a30.863 30.863 0 0 1-6.33-25.83l50.72-246.57c1.36-6.61 7.24-11.41 13.99-11.41h15.15c7.38 0 13.64 5.77 14.24 13.13l20.74 254.34c.59 7.12-1.86 14.22-6.7 19.48a25.744 25.744 0 0 1-18.88 8.27ZM2060.15 1954.12h-237.66c-1.23 0-2.22-1-2.22-2.23s.99-2.23 2.22-2.23h237.66c6.04 0 11.23-4.1 12.63-9.98l20.95-88.44c.28-1.2 1.48-1.93 2.68-1.65a2.23 2.23 0 0 1 1.65 2.68l-20.95 88.44a17.368 17.368 0 0 1-16.96 13.41Z" style="fill-rule:nonzero"/><path d="m1968.43 1951.89-6.66 26.85a10.074 10.074 0 0 1-9.8 7.76h-47.07c-5.13 0-8.84-4.89-7.47-9.83l6.9-24.78h64.1Z" style="fill:#fff;fill-rule:nonzero"/><path d="m1906.02 1954.12-6.44 23.15c-.47 1.68-.13 3.43.92 4.82a5.499 5.499 0 0 0 4.4 2.18h47.07a7.81 7.81 0 0 0 7.63-6.04l5.98-24.11h-59.56Zm45.95 34.6h-47.07c-3.15 0-6.04-1.43-7.95-3.94a9.862 9.862 0 0 1-1.66-8.7l6.89-24.79c.27-.96 1.15-1.63 2.15-1.63h64.1c.68 0 1.33.32 1.75.86.42.54.57 1.24.41 1.91l-6.66 26.85c-1.31 5.55-6.24 9.44-11.96 9.44ZM2038.47 2104.88h-252.48c-1.23 0-2.23-1-2.23-2.22 0-1.24 1-2.23 2.23-2.23h252.48c1.23 0 2.22.99 2.22 2.23 0 1.22-.99 2.22-2.22 2.22ZM1915.48 1824.22h-19.71c-5.32 0-9.64 4.32-9.64 9.64h38.99c0-5.32-4.32-9.64-9.64-9.64Z" style="fill-rule:nonzero"/><path d="M1888.7 1831.63h33.85c-.95-3-3.76-5.18-7.07-5.18h-19.71c-3.31 0-6.12 2.18-7.07 5.18Zm36.42 4.46h-38.99c-1.23 0-2.23-1-2.23-2.23 0-6.54 5.33-11.87 11.87-11.87h19.71c6.54 0 11.87 5.33 11.87 11.87 0 1.23-1 2.23-2.23 2.23ZM2073.43 1824.22h-19.71c-5.32 0-9.64 4.32-9.64 9.64h38.99c0-5.32-4.32-9.64-9.64-9.64Z" style="fill-rule:nonzero"/><path d="M2046.65 1831.63h33.85c-.95-3-3.76-5.18-7.07-5.18h-19.71c-3.31 0-6.12 2.18-7.07 5.18Zm36.42 4.46h-38.99c-1.23 0-2.23-1-2.23-2.23 0-6.54 5.33-11.87 11.87-11.87h19.71c6.54 0 11.87 5.33 11.87 11.87 0 1.23-1 2.23-2.23 2.23Z" style="fill-rule:nonzero"/><path d="m2068.28 1823.7 3.18-18.86c2.25-13.38-6.77-24.23-20.15-24.23h-118.18c-13.37 0-26.04 10.85-28.3 24.23l-3.17 18.86h9.04l2.47-14.68c1.76-10.41 11.62-18.85 22.03-18.85h110.83c10.41 0 17.43 8.44 15.68 18.85l-2.47 14.68h9.04Z" style="fill:#fff;fill-rule:nonzero"/><path d="M2061.87 1821.47h4.53l2.86-17c.99-5.88-.36-11.36-3.81-15.44-3.38-3.99-8.4-6.19-14.14-6.19h-118.18c-12.31 0-24.02 10.03-26.1 22.37l-2.74 16.26h4.53l2.16-12.82c1.92-11.42 12.79-20.71 24.22-20.71h110.83c5.65 0 10.64 2.21 14.03 6.22 3.45 4.08 4.82 9.49 3.85 15.23l-2.04 12.08Zm6.41 4.46h-9.04a2.237 2.237 0 0 1-2.2-2.6l2.48-14.68c.74-4.43-.27-8.56-2.86-11.62-2.53-2.99-6.31-4.64-10.63-4.64H1935.2c-9.36 0-18.25 7.63-19.83 17l-2.47 14.68a2.233 2.233 0 0 1-2.2 1.86h-9.04c-.66 0-1.28-.29-1.7-.79-.43-.5-.61-1.16-.5-1.81l3.18-18.86c2.42-14.38 16.1-26.08 30.49-26.08h118.18c7.08 0 13.3 2.75 17.54 7.76 4.31 5.1 6.02 11.86 4.81 19.06l-3.18 18.86a2.233 2.233 0 0 1-2.2 1.86Z" style="fill-rule:nonzero"/><path d="M2045.45 1772.8h-103.82c-4.18 0-8.14 3.39-8.85 7.58l-1.52 9.07c-.71 4.18 2.11 7.57 6.3 7.57h103.81c4.18 0 8.14-3.39 8.85-7.57l1.53-9.07c.7-4.19-2.12-7.58-6.3-7.58Z" style="fill-rule:nonzero"/><path d="M1941.63 1775.03c-3.08 0-6.13 2.62-6.65 5.72l-1.53 9.07c-.23 1.38.07 2.65.86 3.58.76.9 1.91 1.39 3.25 1.39h103.81c3.08 0 6.13-2.62 6.65-5.71l1.53-9.07c.23-1.39-.07-2.66-.85-3.59-.76-.9-1.92-1.39-3.26-1.39h-103.81Zm99.74 24.22h-103.81c-2.67 0-5.04-1.06-6.65-2.97-1.65-1.95-2.3-4.5-1.85-7.2l1.53-9.07c.89-5.29 5.74-9.43 11.04-9.43h103.81c2.67 0 5.04 1.05 6.66 2.96 1.64 1.95 2.3 4.51 1.84 7.21l-1.52 9.07c-.9 5.28-5.75 9.43-11.05 9.43ZM2080.91 2104.88a2.227 2.227 0 0 1-1.1-4.16l39.57-22.54v-226.42c0-1.23.99-2.23 2.22-2.23 1.23 0 2.23 1 2.23 2.23v227.71c0 .8-.43 1.54-1.12 1.94l-40.7 23.18c-.34.2-.72.29-1.1.29Z" style="fill-rule:nonzero"/></svg>